<svg id="_x33_0" enable-background="new 0 0 64 64" height="512" viewBox="0 0 64 64" width="512" xmlns="http://www.w3.org/2000/svg"><g><path d="m34 21v-7c0-1.771.359-3.46 1.003-5h-22.059v12zm-14.293-6.707 2.293 2.293 6.293-6.293 1.414 1.414-7.707 7.707-3.707-3.707z"/><path d="m17 31h-1c-4.59 0-8.623 2.398-10.937 6h8.937c3.309 0 6 2.691 6 6v6c0 1.103.897 2 2 2h6v-9c0-6.065-4.935-11-11-11z"/><path d="m18 49v-6c0-2.206-1.794-4-4-4h-9.997c-.644 1.54-1.003 3.229-1.003 5v5h4v2c0 3.309 2.691 6 6 6h7v2h-4v2h12v-8h-6c-2.206 0-4-1.794-4-4zm-10-3c-1.654 0-3-1.346-3-3h2c0 .551.448 1 1 1s1-.449 1-1h2c0 1.654-1.346 3-3 3z"/><path d="m10.944 25h11.469l4.892 5.87c.195.237.64.075.64-.231v-5.639h6.055v-2h-23.056v-16h25.119c.439-.684.94-1.321 1.496-1.91-.181-.053-.367-.09-.559-.09h-26.056c-1.103 0-2 .897-2 2v16c0 1.103.898 2 2 2z"/><path d="m36 23h6c1.103 0 2-.897 2-2v-6c0-3.309 2.691-6 6-6h8.937c-2.314-3.602-6.347-6-10.937-6h-1c-6.065 0-11 4.935-11 11z"/><path d="m53 35h-25.063c.407.633.767 1.298 1.06 2h24.003v16h-23v2h6v5.638c0 .307.443.468.64.231l4.891-5.869h11.469c1.103 0 2-.897 2-2v-16c0-1.103-.897-2-2-2z"/><path d="m59.997 11h-9.997c-2.206 0-4 1.794-4 4v6c0 2.206-1.794 4-4 4h-6v8h12v-2h-4v-2h7c3.309 0 6-2.691 6-6v-2h4v-5c0-1.771-.359-3.46-1.003-5zm-3.997 7c-1.654 0-3-1.346-3-3h2c0 .551.448 1 1 1s1-.449 1-1h2c0 1.654-1.346 3-3 3z"/><path d="m51 51v-12h-21.363c.229.965.363 1.966.363 3v9zm-15.707-9.293 1.414-1.414 3.293 3.293 3.293-3.293 1.414 1.414-3.293 3.293 3.293 3.293-1.414 1.414-3.293-3.293-3.293 3.293-1.414-1.414 3.293-3.293z"/></g></svg>