<svg xmlns="http://www.w3.org/2000/svg" viewBox="0 0 393.872 393.872"><path d="M350.889 144.372c-.8-1.3-1.2-2.8-1.1-4.3 2.2-31.3-3.3-54.3-16.3-68.3-10.9-11.7-23.8-13.4-27.1-13.6-2.6.9-4.9 1.9-7.1 3 20.2 10.1 34.1 30.9 34.1 55 0 25.1-15.1 46.7-36.7 56.2 13.8 2.2 26.8-2.3 27.7-2.6 3.5-1.3 7.5.6 8.7 4.1 1.3 3.5-.5 7.4-4.1 8.7-.9.3-11.4 4-24.6 4-9.8 0-21.2-2.1-31.2-9.1h-1.3c-20.9 0-39.3-10.4-50.4-26.3-1.2.9-2.6 1.3-4 1.3-1.5 0-3-.5-4.2-1.5-3-2.3-3.5-6.6-1.1-9.6l2.4-3.3c-2.7-6.9-4.1-14.3-4.1-22.1 0-19.8 9.3-37.3 23.8-48.6.9-1.3 2.2-2.2 3.7-2.6 9.7-6.4 21.4-10.2 33.9-10.2 3.5 0 6.9.3 10.2.9 3.9-3 8.6-5.7 14-8.1-10.3-18.3-25.5-15.5-27.3-15.1-1.1.2-2.1.2-3.2 0l-12.3 16.7c-1.3 1.8-3.4 2.8-5.5 2.8-1.4 0-2.8-.4-4.1-1.4-3-2.2-3.7-6.5-1.4-9.5l12.6-16.9c-25.2-19.4-45.4-6.1-51.3-1.3v332.6c9.2 16.4 19.1 24.9 29.5 25h.3c17.7 0 35.3-23.5 40.6-32.6 1-1.7 2.8-3 4.8-3.3 8.9-1.5 15.2-5.1 18.6-10.6 6.3-10.4 1.6-25 1.6-25.1-1.1-3.4.5-7 3.8-8.4 27.9-12 30.3-38.1 29.3-52.4-7.8 4.4-15.5 6.6-22.8 6.6-3.4 0-6.8-.5-10.1-1.4-22.1-6.4-31.9-32.3-32.3-33.4-1.3-3.5.5-7.5 4-8.8s7.4.5 8.8 4c.1.3 7.9 20.6 23.4 25.1 8.7 2.5 18.8-.5 29.9-9 .5-.4 1-.7 1.5-.9 49.9-34.2 17.8-83.6 16.4-85.7zm-83.5 142.9c0 3.8-3.1 6.8-6.8 6.8-20 0-31.7 33.3-31.8 33.6-1 2.9-3.6 4.7-6.5 4.7-.7 0-1.4-.1-2.2-.4-3.6-1.2-5.5-5.1-4.3-8.6.4-1.1 6.5-19 19-31.3v-.1c.2-1 4.8-22.4-17.3-44.6-2.7-2.7-2.7-7 0-9.7s7-2.7 9.7 0c16.8 16.8 21.1 33.7 21.7 44.9 3.6-1.4 7.5-2.2 11.7-2.2 3.8.1 6.8 3.1 6.8 6.9zm-77.4-264.9c-6.7-5.5-27.9-18.7-54.2 4.1 6.6 8.6 17.1 22.2 21.2 26.3 2.7 2.7 2.7 7 0 9.7-1.3 1.3-3.1 2-4.8 2s-3.5-.7-4.8-2c-5.6-5.6-19.6-24-24.5-30.4-4.9-.4-16.7.4-25.2 15.5 35.4 15.5 35.8 47 35.8 48.4 0 3.8-3.1 6.8-6.8 6.8-3.8 0-6.8-3-6.8-6.8 0-1.2-.8-26.6-32.5-37.8-3.6.3-16.3 2.1-27.1 13.8-12.9 14.1-18.4 37-16.1 68.1.1 1.5-.3 3-1.1 4.3-1.4 2.1-33.7 52.3 17.2 86.2l.1.1c.1.1.2.1.2.2 8.7 6.6 16.7 9.9 24 9.8 5.3-12.3 15.5-21.9 28.2-26.3-2.8-13.9-.6-28.3 3.1-39.7-3.8.9-7.5 1.3-11.1 1.3-27.1 0-46.3-23.6-47.2-24.8-2.4-2.9-1.9-7.2 1.1-9.6 2.9-2.4 7.2-1.9 9.6 1.1.9 1.1 22.8 27.7 49.6 17.1 13.9-5.5 22.5-12.3 29.4-17.7 8.5-6.6 16.5-12.9 27.2-7.6 3.4 1.7 4.7 5.8 3.1 9.2-1.7 3.4-5.8 4.7-9.2 3.1-2.6-1.3-4.4-.4-12.7 6.1-5.4 4.3-12.4 9.7-22.3 14.8-.1.5-.3 1-.5 1.5-.6 1.3-10.9 22.4-6.7 42.6.8 0 1.7-.1 2.5-.1 11.2 0 21.6 3.9 29.7 10.4.4-1.7 1.3-3.2 2.9-4.2 2.2-1.5 12.9-9.8 4.5-22.4-2.1-3.1-1.2-7.4 1.9-9.5 3.1-2.1 7.4-1.2 9.5 1.9 12.1 18.2 1.7 34.7-8.3 41.4-.8.5-1.6.8-2.4 1 6.3 8.1 10.1 18.3 10.1 29.3 0 21.2-13.8 39.1-32.9 45.4-6.3 14-4 24.8-3.8 25.4.8 3.7-1.4 7.3-5 8.2-.5.1-1.1.2-1.6.2-3.1 0-5.8-2-6.6-5.1-.2-.7-2.7-11.6 1.7-26.3-26.2-.3-47.3-21.5-47.3-47.8 0-1.8.1-3.6.3-5.3-6.3-.5-12.7-2.7-19.3-6.3-1 14.4 1.5 40.4 29.4 52.3 3.3 1.4 4.9 5.1 3.8 8.4 0 .1-4.7 14.8 1.6 25.1 3.4 5.6 9.6 9.1 18.6 10.6 2 .3 3.7 1.5 4.8 3.3 5.3 9.1 23 32.6 40.6 32.6h.3c10.3-.2 20.1-8.4 29.3-24.6v-333.3h-.5zm-105.8 114.2c-16.9 0-30.7-13.8-30.7-30.7s13.8-30.7 30.7-30.7 30.7 13.8 30.7 30.7-13.8 30.7-30.7 30.7z" fill="#fff"/><path d="M363.489 138.872c2.1-34.1-4.7-59.9-20.1-76.4-12-12.9-26.1-16.6-33.2-17.6-10.9-23-29.4-27.4-40.6-26.4-32.8-30.5-61.7-15.6-72.7-7.8-11-7.9-39.9-22.8-72.6 7.7-11.3-1.1-29.8 3.4-40.6 26.4-7.1 1-21.2 4.7-33.2 17.6-15.4 16.6-22.2 42.3-20.1 76.4-2.9 4.9-9.7 18-11.8 34.4-2.3 18.6 1.2 44.8 30.3 66.1-3.4 19.9-.2 54.1 31.6 70.9-1.3 7.2-2.2 19.8 4.3 30.5 5.1 8.4 13.5 14 25 16.5 5.8 9 25.8 36.7 50.8 36.7h.5c13.4-.2 25.5-8.1 36-23.5 10.6 15.4 22.7 23.4 36 23.5h.5c25 0 45-27.7 50.8-36.7 11.5-2.5 19.9-8.1 25-16.5 6.5-10.7 5.6-23.3 4.3-30.5 31.7-16.8 34.9-51.1 31.6-70.9 50.6-37.2 24.6-89.3 18.2-100.4zm-29 91.1c-.5.2-1 .5-1.5.9-11.1 8.5-21.2 11.5-29.9 9-15.4-4.5-23.3-24.8-23.4-25.1-1.3-3.5-5.2-5.3-8.8-4-3.5 1.3-5.3 5.2-4 8.8.4 1.1 10.2 27 32.3 33.4 3.3 1 6.7 1.4 10.1 1.4 7.4 0 15-2.2 22.8-6.6 1 14.3-1.4 40.5-29.3 52.4-3.2 1.4-4.9 5.1-3.8 8.4 0 .1 4.7 14.8-1.6 25.1-3.4 5.6-9.6 9.1-18.6 10.6-2 .3-3.7 1.5-4.8 3.3-5.3 9.1-23 32.6-40.6 32.6h-.3c-10.4-.2-20.3-8.6-29.5-25v-332.5c5.9-4.9 26-18.1 51.3 1.3l-12.5 16.9c-2.3 3-1.6 7.3 1.4 9.5 1.2.9 2.7 1.4 4.1 1.4 2.1 0 4.1-1 5.5-2.8l12.4-16.6c1 .2 2.1.3 3.2 0 1.8-.4 17-3.2 27.3 15.1-5.5 2.4-10.1 5.1-14 8.1-21.7 16.4-22 39.2-22 40.4 0 3.8 3.1 6.8 6.8 6.8s6.8-3.1 6.8-6.8c0-.2.3-22.5 25.4-34.8 2.2-1.1 4.6-2.1 7.1-3 3.3.2 16.2 1.9 27.1 13.6 13.1 14 18.6 37 16.3 68.3-.1 1.5.3 3 1.1 4.3 1.4 2.1 33.5 51.5-16.4 85.6zm-173.8 150.3h-.3c-17.7 0-35.3-23.5-40.6-32.6-1-1.7-2.8-3-4.8-3.3-8.9-1.5-15.2-5.1-18.6-10.6-6.3-10.4-1.6-25-1.6-25.1 1.1-3.4-.5-7-3.8-8.4-27.8-11.9-30.3-37.9-29.4-52.3 6.6 3.7 13.1 5.8 19.3 6.3 1.1.1 2.2.2 3.2.2 3.4 0 6.8-.5 10.1-1.4 12-3.5 20.3-12.6 25.5-20.5 3.7 5.9 8.8 11.3 15.7 15.9 1.2.8 2.5 1.1 3.8 1.1 2.2 0 4.4-1.1 5.7-3 2.1-3.1 1.2-7.4-1.9-9.5-10.3-6.9-15.2-15.9-17.1-25.2-4.2-20.2 6.1-41.4 6.7-42.6.2-.5.4-1 .5-1.5 9.9-5.1 16.8-10.6 22.3-14.8 8.3-6.5 10.1-7.4 12.7-6.1 3.4 1.7 7.5.3 9.2-3.1 1.7-3.4.3-7.5-3.1-9.2-10.7-5.3-18.7.9-27.2 7.6-6.9 5.4-15.5 12.2-29.4 17.7-26.7 10.7-48.6-15.9-49.6-17.1-2.4-2.9-6.7-3.4-9.6-1.1-2.9 2.4-3.4 6.7-1.1 9.6 1 1.2 20.2 24.8 47.2 24.8 3.6 0 7.3-.4 11.1-1.3-3.7 11.4-5.9 25.8-3.1 39.7.1.6.3 1.3.4 1.9-2.2 4.9-9.8 19.8-22.7 23.5-1.9.6-3.9.8-5.9.8-7.3.1-15.3-3.2-24-9.8-.1-.1-.2-.1-.2-.2l-.1-.1c-50.9-33.9-18.6-84.1-17.2-86.2.8-1.3 1.2-2.8 1.1-4.3-2.2-31.1 3.2-54 16.1-68.1 10.7-11.7 23.4-13.5 27.1-13.8 31.6 11.2 32.4 36.6 32.5 37.8 0 3.8 3.1 6.8 6.8 6.8 3.8 0 6.8-3.1 6.8-6.8 0-1.4-.4-32.9-35.8-48.4 8.5-15.1 20.3-15.9 25.2-15.5 4.9 6.4 18.9 24.8 24.5 30.4 1.3 1.3 3.1 2 4.8 2s3.5-.7 4.8-2c2.7-2.7 2.7-7 0-9.7-4-4.1-14.6-17.6-21.2-26.3 26.3-22.8 47.5-9.6 54.2-4.1v333.3c-8.8 16.1-18.7 24.4-29 24.6z" fill="#602f75"/><path d="M127.989 307.272c2.8-9.4 8.4-20.3 19.3-31.2 2.7-2.7 7-2.7 9.7 0s2.7 7 0 9.7c-6.6 6.6-10.8 13.2-13.5 19.2 19.1-6.3 32.9-24.2 32.9-45.4 0-11.1-3.8-21.2-10.1-29.3-.4.1-.9.2-1.3.2-2.2 0-4.4-1.1-5.7-3a6.54 6.54 0 01-1-5.2c-8.2-6.5-18.5-10.4-29.7-10.4-.8 0-1.7 0-2.5.1 1.9 9.3 6.9 18.3 17.1 25.2 3.1 2.1 4 6.3 1.9 9.5-1.3 2-3.5 3-5.7 3-1.3 0-2.6-.4-3.8-1.1-6.9-4.6-12-10-15.7-15.9-5.2 7.9-13.6 17-25.5 20.5-3.3 1-6.7 1.4-10.1 1.4-1.1 0-2.1-.1-3.2-.2-.2 1.7-.3 3.5-.3 5.3-.1 26 21.1 47.3 47.2 47.6zm-43.4-66.6c2 0 4-.3 5.9-.8 12.9-3.7 20.5-18.6 22.7-23.5-.2-.6-.3-1.3-.4-1.9-12.7 4.3-22.9 13.9-28.2 26.2z" fill="#ffe600"/><path d="M262.189 166.772c-10.2-13.5-14.6-25.2-17.8-33.8-3.1-8.1-4.3-10.7-6.3-11.5-3.5 9.8-8.4 19.8-15.3 28.5-.4.5-.9.9-1.4 1.3 11.1 15.9 29.5 26.3 50.4 26.3h1.3c-3.8-2.8-7.6-6.3-10.9-10.8zm-24.2-101.9c.6-.2 1.2-.3 1.8-.3 3.8-.1 6.9 3 6.9 6.7 0 1.1.2 17.5-4.7 37 8.6 2.7 11.8 11 15.1 19.8 3.1 8.2 7 18.5 15.9 30.4 6.5 8.7 15.2 12.4 23.5 13.8 21.6-9.5 36.7-31.1 36.7-56.2 0-24.1-13.9-45-34.1-55-25.1 12.4-25.4 34.6-25.4 34.8 0 3.8-3.1 6.8-6.8 6.8s-6.8-3.1-6.8-6.8c0-1.2.3-24 22-40.4-3.3-.6-6.7-.9-10.2-.9-12.5.1-24.2 3.9-33.9 10.3zm-4.9 6.7c0-1.5.4-2.9 1.2-4-14.5 11.2-23.8 28.8-23.8 48.6 0 7.8 1.5 15.3 4.1 22.1 18.8-27 18.5-66.3 18.5-66.7z" fill="#00e7ff"/><circle cx="84.177" cy="105.845" fill="#ea3457" r="30.7"/><path d="M156.989 276.072c-2.7-2.7-7-2.7-9.7 0-10.9 10.9-16.5 21.8-19.3 31.2-4.4 14.7-1.8 25.6-1.7 26.3.8 3.1 3.5 5.1 6.6 5.1.5 0 1.1-.1 1.6-.2 3.6-.9 5.9-4.6 5-8.2-.1-.6-2.5-11.4 3.8-25.4 2.7-6 6.9-12.5 13.5-19.2 2.8-2.6 2.8-6.9.2-9.6zm116.1-117.5c-9-12-12.8-22.2-15.9-30.4-3.3-8.8-6.5-17.1-15.1-19.8 4.8-19.5 4.7-35.9 4.7-37-.1-3.8-3.1-6.9-6.9-6.7-.6 0-1.2.1-1.8.3-1.5.4-2.8 1.4-3.7 2.6-.8 1.1-1.3 2.5-1.2 4 0 .4.3 39.7-18.5 66.7l-2.4 3.3c-2.3 3-1.8 7.3 1.1 9.6 1.3 1 2.7 1.5 4.2 1.5 1.4 0 2.8-.5 4-1.3.5-.4 1-.8 1.4-1.3 6.9-8.7 11.8-18.7 15.3-28.5 1.9.8 3.2 3.4 6.3 11.5 3.2 8.6 7.6 20.3 17.8 33.8 3.4 4.5 7.1 8 11 10.7 10 7 21.3 9.1 31.2 9.1 13.2 0 23.8-3.7 24.6-4 3.5-1.3 5.4-5.2 4.1-8.7s-5.2-5.4-8.7-4.1c-.9.3-13.9 4.9-27.7 2.6-8.6-1.5-17.3-5.2-23.8-13.9zm-113.9 68.7c1.3 2 3.5 3 5.7 3 .4 0 .9-.1 1.3-.2.8-.2 1.7-.5 2.4-1 10-6.7 20.4-23.2 8.3-41.4-2.1-3.1-6.3-4-9.5-1.9-3.1 2.1-4 6.3-1.9 9.5 8.4 12.6-2.3 20.9-4.5 22.4-1.5 1-2.5 2.6-2.9 4.2-.2 1.9.1 3.8 1.1 5.4zm101.4 53.2c-4.2 0-8.1.8-11.7 2.2-.7-11.1-4.9-28.1-21.7-44.9-2.7-2.7-7-2.7-9.7 0s-2.7 7 0 9.7c22.2 22.2 17.6 43.6 17.3 44.6v.1c-12.5 12.3-18.6 30.2-19 31.3-1.2 3.6.7 7.4 4.3 8.6.7.2 1.4.4 2.2.4 2.9 0 5.5-1.8 6.5-4.7.1-.3 11.8-33.6 31.8-33.6 3.8 0 6.8-3.1 6.8-6.8s-3-6.9-6.8-6.9z" fill="#602f75"/></svg>