<svg height="418pt" viewBox="0 -9 418.937 418" width="418pt" xmlns="http://www.w3.org/2000/svg"><path d="M260.668 263.344c0 26.39-21.395 47.785-47.785 47.785-26.395 0-47.79-21.395-47.79-47.785 0-26.395 21.395-47.79 47.79-47.79 26.39 0 47.785 21.395 47.785 47.79zm0 0" fill="#ea3457"/><path d="M212.883 317.957c-30.117 0-54.613-24.5-54.613-54.613 0-30.117 24.496-54.614 54.613-54.614 30.113 0 54.613 24.497 54.613 54.614 0 30.113-24.5 54.613-54.613 54.613zm0-95.574c-22.586 0-40.961 18.375-40.961 40.96s18.375 40.958 40.96 40.958c22.587 0 40.958-18.371 40.958-40.957s-18.371-40.961-40.957-40.961zm0 0" fill="#ea3457"/><path d="M60.531 342.816a252.109 252.109 0 0142.989 14.258l64.585 28.078a100.185 100.185 0 0077.153 1.145l51.922-20.77 9.3-2.324a82.222 82.222 0 0055.317-46.648l50.312-114.348h-4.156a52.182 52.182 0 00-41.742 20.871l-61.926 71.336" fill="#fff"/><path d="M208.07 400.23c-14.593 0-29.18-2.945-42.687-8.816l-64.59-28.082a246.206 246.206 0 00-41.82-13.871 6.825 6.825 0 01-5.09-8.203c.86-3.668 4.535-5.957 8.207-5.09a260.037 260.037 0 0144.152 14.645l64.586 28.078c22.711 9.875 48.902 10.261 71.899 1.066l51.914-20.77c.289-.113.582-.207.882-.28l9.301-2.329c22.45-5.613 41.414-21.605 50.723-42.777l45.89-104.29c-11.75 1.727-22.562 8.06-29.765 17.665l-62.223 71.715a6.827 6.827 0 01-10.316-8.95l61.922-71.336c10.78-14.402 28.43-23.222 46.898-23.222h4.156a6.83 6.83 0 015.72 3.094 6.843 6.843 0 01.53 6.48l-50.312 114.344c-11 25.004-33.395 43.898-59.906 50.527l-8.856 2.211-51.488 20.598c-12.676 5.066-26.203 7.593-39.727 7.593zm0 0" fill="#602f75"/><path d="M152.004 329.234l.34-.117a115.695 115.695 0 0136.57-5.933h90.117c13.364 0 24.196-10.832 24.196-24.196s-10.832-24.195-24.196-24.195h-64.594c-15.421 0-30.625-4.121-43.734-12.25-15.805-9.8-41.387-23.035-73.144-30.09-54.442-12.101-90.735 36.293-90.735 36.293v66.54l21.211 2.12c1.266.125 2.528.262 3.79.406" fill="#fff"/><path d="M31.836 344.64c-.262 0-.527-.015-.797-.046l-24.89-2.52A6.824 6.824 0 010 335.285v-66.539c0-1.476.48-2.91 1.367-4.094 1.586-2.12 39.602-51.785 97.672-38.863 32.66 7.262 58.957 20.84 75.266 30.957 11.84 7.344 25.718 11.223 40.136 11.223h64.59c17.106 0 31.024 13.918 31.024 31.023 0 17.11-13.914 31.024-31.024 31.024h-90.117a108.761 108.761 0 00-34.406 5.582L152 329.234l-2.117-6.488.344-.113c12.472-4.16 25.5-6.27 38.687-6.27h90.117c9.578 0 17.371-7.793 17.371-17.37 0-9.579-7.793-17.372-17.37-17.372h-64.59c-16.965 0-33.329-4.59-47.333-13.277-15.406-9.555-40.242-22.383-71.027-29.23-43.977-9.755-75.621 24-82.426 32.05v57.941l18.961 1.93a6.826 6.826 0 01-.781 13.606zm0 0" fill="#602f75"/><path d="M236.688 178.012s-30.247-84.688 78.636-78.637c0 0 6.051 120.977-78.637 78.637zm0 0" fill="#00e7ff"/><path d="M268.867 193.84c-10.5 0-22.273-3.242-35.234-9.723a6.842 6.842 0 01-3.375-3.808c-.528-1.48-12.727-36.567 6.66-62.52 14.09-18.863 40.582-27.36 78.785-25.23a6.817 6.817 0 016.434 6.476c.136 2.715 2.953 66.7-29.676 88.004-6.938 4.535-14.82 6.8-23.594 6.8zm-26.527-20.68c17.933 8.414 32.27 9.235 42.66 2.45 19.348-12.637 23.531-50.15 23.633-69.673-29.934-.726-50.313 6.016-60.778 20.024-12.453 16.672-7.613 39.613-5.515 47.2zm0 0" fill="#602f75"/><path d="M191.96 93.055s-92.718 34.078-87.179-85.582c0 0 132.828-7.871 87.18 85.582zm0 0" fill="#ffe600"/><g fill="#602f75"><path d="M164.46 104.39c-12.105 0-26.07-2.59-38.257-11.519-20.672-15.148-30.172-43.988-28.242-85.715A6.827 6.827 0 01104.379.66c2.953-.172 72.851-3.902 96.371 31.406 10.953 16.43 10.055 37.954-2.66 63.98a6.817 6.817 0 01-3.778 3.411c-.917.34-13.734 4.934-29.851 4.934zm27.497-11.335h.066zm-80.559-78.961c-.59 33.418 7.094 56.199 22.872 67.761 18.89 13.84 44.683 7.961 52.792 5.598 9.278-20.137 10.063-36.21 2.329-47.82-14.375-21.574-56.532-25.797-77.993-25.54zm0 0"/><path d="M217.777 279.219a6.826 6.826 0 01-6.824-7.172 292.492 292.492 0 012.024-22.867c2.84-48.313 1.375-160.82-69.758-191.946a6.826 6.826 0 01-3.52-8.988c1.508-3.45 5.543-5.027 8.992-3.52 41.918 18.34 68.29 64 76.246 132.044a370.792 370.792 0 011.649 17.964c18.734-47.34 47.394-64.066 49.101-65.023 3.282-1.856 7.446-.676 9.297 2.605a6.828 6.828 0 01-2.586 9.282c-.722.422-44.671 26.8-55.703 108.132-.84 13.915-2.05 22.786-2.164 23.598a6.825 6.825 0 01-6.754 5.89zm0 0"/></g></svg>