<svg version="1.1" id="Capa_1" xmlns="http://www.w3.org/2000/svg" x="0" y="0" viewBox="0 0 512 512" xml:space="preserve"><style>.st0{fill:#eee}</style><path class="st0" d="M511.9 189.3H383.1V0H111.5L.1 111.5V512h383v-76.3h128.8V189.3zM112.8 41.2v71.5H41.3l71.5-71.5zM353.1 482h-323V142.7h112.7V30h210.3v159.3h-283v246.4h283V482zm128.8-76.3H100.1V219.3h381.8v186.4z"/><path d="M162.3 335.8H180c24.2 0 44-19.7 44-44s-19.7-44-44-44h-47.7v130.9h30v-42.9zm0-58H180c7.7 0 14 6.3 14 14s-6.3 14-14 14h-17.7v-28zm233.5 58h41.3v-30h-41.3v-28h52v-30h-82v130.9h30v-42.9zm-56.6-1.6v-42.4c0-24.3-19.8-44.1-44.1-44.1h-47.6v130.5h47.6c24.3.1 44.1-19.7 44.1-44zm-61.7-56.4h17.6c7.8 0 14.1 6.3 14.1 14.1v42.4c0 7.8-6.3 14.1-14.1 14.1h-17.6v-70.6z" fill="#eb1555"/><path class="st0" d="M178.1 112.7h137.4v30H178.1v-30z"/></svg>