<svg xmlns="http://www.w3.org/2000/svg" viewBox="0 0 512.001 512.001"><path d="M508.113 211.83a8.534 8.534 0 00-8.4-7.029H454.23a199.363 199.363 0 00-21.875-52.758l32.175-32.175a8.527 8.527 0 00.962-10.917 251.462 251.462 0 00-62.442-62.442 8.532 8.532 0 00-10.917.962l-32.175 32.175A199.377 199.377 0 00307.2 57.771V12.288a8.534 8.534 0 00-7.029-8.4 254.11 254.11 0 00-88.342 0 8.303 8.303 0 00-1.812.669 80.851 80.851 0 00-107.53 72.706c-2.018.222-3.998.565-5.967.941-.36.069-.734.098-1.093.172a76.17 76.17 0 00-7.105 1.831c-.735.227-1.438.523-2.164.772-1.576.539-3.15 1.078-4.678 1.715-.866.361-1.694.788-2.543 1.179-1.338.617-2.678 1.227-3.974 1.917-.887.473-1.736 1.001-2.603 1.507-1.201.703-2.403 1.403-3.563 2.168-.861.567-1.685 1.178-2.522 1.779-1.106.794-2.205 1.594-3.266 2.444-.812.651-1.593 1.335-2.378 2.018a78.705 78.705 0 00-2.98 2.708 75.432 75.432 0 00-2.211 2.243 77.038 77.038 0 00-2.693 2.962 75.164 75.164 0 00-4.411 5.646c-.61.859-1.21 1.722-1.785 2.607a76.434 76.434 0 00-2.099 3.452c-.526.91-1.051 1.818-1.541 2.75-.634 1.209-1.211 2.447-1.782 3.693-.434.948-.879 1.888-1.276 2.857-.531 1.298-.991 2.627-1.452 3.959-.334.967-.692 1.92-.989 2.903-.426 1.412-.765 2.859-1.109 4.303-.226.946-.491 1.877-.681 2.837-.323 1.625-.539 3.283-.756 4.943-.107.816-.267 1.615-.348 2.438-.246 2.5-.385 5.03-.385 7.593a75.357 75.357 0 006.071 29.95c-.535.333-.999.744-1.526 1.087-1.388.91-2.716 1.896-4.046 2.884a85.398 85.398 0 00-8.722 7.358c-.315.306-.657.583-.967.894-1.603 1.6-3.086 3.29-4.549 5.005-.487.572-.976 1.141-1.448 1.727a84.611 84.611 0 00-4.058 5.423c-.355.518-.674 1.058-1.018 1.583a84.204 84.204 0 00-8.928 18.145c-.533 1.509-1.054 3.021-1.504 4.567a84.859 84.859 0 00-1.106 4.292 84.068 84.068 0 00-1.162 6.016c-.184 1.167-.399 2.319-.535 3.499-.12 1.02-.201 2.047-.284 3.077-.026.172-.129.31-.145.486-.193 2.137-.206 4.27-.206 6.408a85.494 85.494 0 0029.046 64.081 80.483 80.483 0 00-8.699 19.784c-.115.393-.23.783-.339 1.177a81.199 81.199 0 00-2.043 9.735c-.079.542-.129 1.088-.197 1.632a82.402 82.402 0 00-.701 10.257c-.167 37.764 25.891 70.588 62.708 78.992.245.948.576 1.856.849 2.792.267.911.533 1.82.827 2.719a92.64 92.64 0 002.229 6.078c.259.638.493 1.286.765 1.918a93.46 93.46 0 0013.526 22.252c.337.412.694.805 1.038 1.212a96.9 96.9 0 004.623 5.085 92.546 92.546 0 001.604 1.591 92.76 92.76 0 004.623 4.203c.638.544 1.268 1.092 1.92 1.619a94.232 94.232 0 004.982 3.728c.648.457 1.273.941 1.934 1.381 2.32 1.545 4.694 3.011 7.148 4.347.448.244.923.441 1.375.678a93.52 93.52 0 006.159 2.971c1.043.454 2.117.841 3.18 1.257 1.573.616 3.152 1.215 4.763 1.747 1.166.385 2.346.73 3.532 1.07 1.609.462 3.234.881 4.873 1.256 1.165.267 2.328.529 3.508.752 1.84.348 3.701.614 5.573.853 1.01.128 2.008.291 3.028.386 2.916.275 5.857.447 8.834.447a93.326 93.326 0 0035.914-7.172 8.452 8.452 0 005.249 3.285 252.902 252.902 0 0088.342 0 8.533 8.533 0 007.029-8.4V454.23a199.363 199.363 0 0052.758-21.875l32.175 32.175a8.517 8.517 0 0010.917.962 251.462 251.462 0 0062.442-62.442 8.527 8.527 0 00-.962-10.917l-32.175-32.175a199.377 199.377 0 0021.875-52.758h45.483a8.534 8.534 0 008.4-7.029 252.945 252.945 0 00-.002-88.341zM170.667 494.934c-2.48 0-4.928-.141-7.349-.372-.873-.083-1.728-.233-2.592-.346-1.523-.198-3.044-.407-4.539-.694-1.024-.197-2.032-.445-3.043-.682a76.498 76.498 0 01-3.892-1.003 76.792 76.792 0 01-3.085-.979 74.995 74.995 0 01-3.661-1.343 75.385 75.385 0 01-2.921-1.212 75.708 75.708 0 01-3.685-1.778c-.853-.435-1.714-.857-2.549-1.323a76.387 76.387 0 01-4.152-2.526c-.573-.369-1.166-.709-1.73-1.092a77.406 77.406 0 01-11.022-9.115c-.109-.109-.209-.228-.318-.338a78.633 78.633 0 01-4.472-4.92c-.253-.304-.489-.623-.738-.931a77.699 77.699 0 01-3.554-4.749c-.289-.42-.563-.851-.845-1.277a77.994 77.994 0 01-3.751-6.33 76.593 76.593 0 01-2.342-4.854c-.261-.591-.53-1.179-.776-1.778a76.766 76.766 0 01-1.824-4.973c-.213-.643-.449-1.274-.646-1.925-.533-1.755-.972-3.548-1.38-5.353-.133-.589-.302-1.163-.421-1.758a76.746 76.746 0 0113.839-61.232 8.532 8.532 0 00-13.642-10.25 93.05 93.05 0 00-18.779 56.334c0 1.689.165 3.336.254 5.004-25.78-8.886-43.039-33.202-42.92-60.47a64.71 64.71 0 01.853-10.493c.06-.368.196-.708.263-1.074a62.799 62.799 0 0112.197-27.404c.058-.075.068-.174.123-.25a63.732 63.732 0 0131.74-21.966 8.535 8.535 0 10-5.017-16.317 81.012 81.012 0 00-34.748 21.398 68.392 68.392 0 01-22.478-50.561 69.42 69.42 0 01.596-8.56c.113-.905.263-1.799.412-2.693.319-1.941.738-3.85 1.219-5.739.246-.956.452-1.927.739-2.866a67.71 67.71 0 012.504-6.89c.558-1.307 1.209-2.563 1.846-3.826a67.758 67.758 0 011.66-3.13c.784-1.373 1.587-2.735 2.461-4.047.503-.756 1.064-1.472 1.597-2.208a68.962 68.962 0 015.39-6.538c.755-.807 1.5-1.621 2.297-2.392a69.212 69.212 0 013.234-2.94 68.643 68.643 0 013.792-2.985c1.029-.763 2.052-1.527 3.123-2.232a69.806 69.806 0 016.132-3.572 67.774 67.774 0 0131.264-7.649 8.533 8.533 0 000-17.066 84.757 84.757 0 00-29.728 5.448 58.638 58.638 0 01-4.406-22.515c.004-27.038 18.168-50.702 44.285-57.697 26.117-6.995 53.677 4.423 67.195 27.839a8.536 8.536 0 0014.775-8.55 77.08 77.08 0 00-57.801-37.808c1.975-34.563 31.092-61.28 65.697-60.283 34.605.997 62.135 29.347 62.116 63.967v52.731l-37.05 51.873-31.343-13.754c.021-.423.126-.822.126-1.25.125-12.491-8.695-23.286-20.96-25.653-12.265-2.367-24.469 4.372-29 16.012-4.531 11.641-.094 24.856 10.544 31.404 10.638 6.548 24.435 4.556 32.787-4.732l30.992 13.602a16.931 16.931 0 006.796 1.421 17.172 17.172 0 0013.95-7.133l23.158-32.424v67.236h-69.839c-4.156-11.755-16.176-18.806-28.465-16.698s-21.271 12.763-21.271 25.231 8.982 23.123 21.271 25.231 24.309-4.943 28.465-16.698h69.839v34.133h-18.639c-4.156-11.755-16.176-18.806-28.465-16.698s-21.271 12.763-21.271 25.231 8.982 23.123 21.271 25.231 24.309-4.943 28.465-16.698h18.639v34.133H177.66a17.105 17.105 0 00-16.733 13.717l-6.024 30.116c-11.817 3.597-19.338 15.168-17.83 27.427 1.509 12.26 11.611 21.661 23.947 22.286 12.336.625 23.337-7.707 26.077-19.752 2.74-12.045-3.573-24.316-14.966-29.089l5.528-27.639h69.804v68.267c-.045 42.395-34.401 76.751-76.796 76.8zm-8.533-324.267a8.533 8.533 0 11-8.533-8.533 8.544 8.544 0 018.533 8.533zm0 68.267a8.533 8.533 0 11-8.533-8.533 8.544 8.544 0 018.533 8.533zm51.2 51.2a8.533 8.533 0 11-8.533-8.533 8.544 8.544 0 018.533 8.533zm-42.667 110.933c0 4.713-3.82 8.533-8.533 8.533s-8.533-3.82-8.533-8.533 3.82-8.533 8.533-8.533a8.544 8.544 0 018.533 8.533zm321.791-110.933h-44.97a8.529 8.529 0 00-8.333 6.7 182.772 182.772 0 01-24.788 59.771 8.53 8.53 0 001.146 10.646l31.817 31.817a234.258 234.258 0 01-48.263 48.263l-31.817-31.817a8.541 8.541 0 00-10.646-1.146 182.815 182.815 0 01-59.771 24.788 8.53 8.53 0 00-6.701 8.333v44.971a237.833 237.833 0 01-63.109.562 93.68 93.68 0 0037.509-74.886v-43.099c62.491-4.408 110.934-56.388 110.934-119.034s-48.443-114.626-110.934-119.034V81.067a80.92 80.92 0 00-30.049-62.92 237.544 237.544 0 0155.649 1.395v44.971a8.529 8.529 0 006.7 8.333 182.772 182.772 0 0159.771 24.788 8.52 8.52 0 0010.646-1.146l31.817-31.817a234.258 234.258 0 0148.263 48.263l-31.817 31.817a8.533 8.533 0 00-1.146 10.646 182.815 182.815 0 0124.788 59.771 8.53 8.53 0 008.333 6.701h44.971c3.3 22.634 3.3 45.629 0 68.265zm-176.724-34.133c-.051-29.661-21.846-54.798-51.2-59.052v-42.916c53.05 4.397 93.866 48.736 93.866 101.968 0 53.232-40.816 97.571-93.866 101.968v-42.916c29.354-4.255 51.148-29.391 51.2-59.052zm-51.2 41.804v-83.608c19.865 4.055 34.133 21.529 34.133 41.804 0 20.274-14.268 37.749-34.133 41.804z"/></svg>