<svg height="640" viewBox="-10 0 480 480" width="640" xmlns="http://www.w3.org/2000/svg"><path d="M376.066 200h24a8 8 0 008-8v-24a8 8 0 00-16 0v16h-16a8 8 0 000 16zM187.86 168c17.671 0 32-14.328 32-32s-14.329-32-32-32c-17.676 0-32 14.328-32 32s14.324 32 32 32zm0-48c8.835 0 16 7.164 16 16s-7.165 16-16 16c-8.84 0-16-7.164-16-16s7.16-16 16-16zm0 0"/><path d="M13.105 165.344A23.83 23.83 0 0024.066 168a23.859 23.859 0 0022.559-16.098l62.914-.972L98.563 160a7.993 7.993 0 00-1.848 10.176L111.665 196l.327 36H72.066c-.468.047-.933.14-1.386.281-3.778-11.12-15.047-17.875-26.637-15.96-11.586 1.913-20.086 11.933-20.086 23.679s8.5 21.766 20.086 23.68c11.59 1.914 22.86-4.84 26.637-15.961a7.1 7.1 0 001.386.281h48c2.133 0 4.18-.852 5.68-2.367a7.996 7.996 0 002.32-5.703l-.367-40.547 25.598-9.598a66.184 66.184 0 005.289 3.086l5.398 32.434a8 8 0 007.899 6.68h4.183v40h-24a8 8 0 00-8 8v116.702L74.41 466.344A8 8 0 0080.066 480h256a7.992 7.992 0 007.387-4.938 8.005 8.005 0 00-1.73-8.718l-53.657-53.656v-42.473l17.91-29.832c30.22 18.234 48.489 27.617 54.09 27.617h48a8 8 0 008-8v-44.688l13.649-13.648a8.076 8.076 0 002.351-5.664v-24h11.688a16.003 16.003 0 0014.625-22.496l-24.875-56a62.17 62.17 0 0014.562-40.137c.18-52.949-29.761-101.39-77.199-124.91L347.664 16.84a7.997 7.997 0 00-10.078 2.512L334.234 24h-54.168V8a8 8 0 00-8-8h-80a8 8 0 00-8 8v32H171.86a8 8 0 00-7.898 6.687l-5.399 32.426a64.366 64.366 0 00-5.289 3.086l-30.808-11.543a7.996 7.996 0 00-9.735 3.489l-8.066 13.976c-.207 0-.375-.121-.582-.121H56.066V62.527c11.02-3.894 17.63-15.164 15.653-26.683-1.977-11.524-11.965-19.942-23.653-19.942-11.691 0-21.68 8.418-23.656 19.942-1.976 11.52 4.637 22.789 15.656 26.683V96a8 8 0 008 8h47.88a7.917 7.917 0 002.616 8l25.375 20.895c0 .585 0 1.183-.046 1.777l-77.297 1.191a23.997 23.997 0 00-24.328-15.84 23.995 23.995 0 00-21.79 19.18 23.994 23.994 0 0012.63 26.14zM48.066 248a8 8 0 11.001-16 8 8 0 010 16zm0-216a8 8 0 110 16 8 8 0 010-16zm144 200h11.793a7.997 7.997 0 007.887-6.68l5.406-32.433a63.321 63.321 0 005.282-3.086l30.824 11.543a7.996 7.996 0 009.734-3.489L266.38 192h37.687a7.314 7.314 0 001.735-.352l14.265 19.016V224h-32v16h18.457l-21.425 8.566a8 8 0 00-5.032 7.434v16h-88zm86.926-130.145L275.617 96h20.45v32h-38.313l19.398-16a7.997 7.997 0 001.84-10.145zM296.066 144v32h-20.449l3.375-5.855a7.997 7.997 0 00-1.84-10.145l-19.398-16zM242.41 341.656l29.656 29.656V376h-48v-88h16v48a8 8 0 002.344 5.656zM191.7 448h.366v-.414l30.024-34.313a8.01 8.01 0 001.976-5.273v-16h16v72h-62.402zm-92.321 16l58.344-58.344a8.001 8.001 0 002.343-5.656V288h48v116.992l-16 18.29V384h-16v57.602L156.434 464zm217.375 0h-60.688v-72h16v24a8 8 0 002.344 5.656zm-38.29-108.895l-22.398-22.402V288h24v32a8.011 8.011 0 003.758 6.785c2.985 1.871 5.68 3.52 8.496 5.254zm68.138-320.898l17.105 8.563c42.004 20.82 68.516 63.714 68.36 110.597a46.327 46.327 0 01-13.657 32.977 7.998 7.998 0 00-1.656 8.902l27 60.754h-19.688a8 8 0 00-8 8v24h-1.375a46.302 46.302 0 01-32.968-13.656 8 8 0 00-11.313 11.312 62.015 62.015 0 0035.086 17.602l-3.086 3.086a8.001 8.001 0 00-2.344 5.656v40l-39.242.047a425.312 425.312 0 01-53.398-29.52l-.04-.039h-.05c-3.766-2.289-7.543-4.61-11.27-6.922v-54.152l34.97-13.98a8.005 8.005 0 005.03-7.434v-32c0-1.73-.562-3.414-1.601-4.8l-22.399-29.864V82.559zM200.066 16h64v16a8 8 0 008 8h50.743l-25.247 35.352A7.917 7.917 0 00296.066 80H266.38l-3.387-5.855a7.996 7.996 0 00-9.734-3.489L222.465 82.2a63.321 63.321 0 00-5.281-3.086l-5.438-32.433A7.997 7.997 0 00203.86 40h-3.793zm-86.105 88l9.223-16 28.41 10.648a8 8 0 007.59-1.082 47.997 47.997 0 019.738-5.68 7.995 7.995 0 004.734-6.038L178.633 56h18.449l4.977 29.855a7.995 7.995 0 004.734 6.04 48.47 48.47 0 019.738 5.68 7.986 7.986 0 007.582 1.081L252.531 88l9.215 16-23.402 19.258a8 8 0 00-2.856 7.125 43.042 43.042 0 010 11.25 8.012 8.012 0 002.856 7.129L261.746 168l-9.215 16-28.418-10.648a7.986 7.986 0 00-7.582 1.082 48.47 48.47 0 01-9.738 5.68 7.995 7.995 0 00-4.734 6.038L197.082 216h-18.457l-4.96-29.855a7.995 7.995 0 00-4.735-6.04 47.863 47.863 0 01-9.735-5.68 7.998 7.998 0 00-7.593-1.081L123.184 184l-9.223-16 23.402-19.258c.14-.137.278-.285.407-.437.156-.149.3-.301.44-.465a7.79 7.79 0 001.438-2.207l.051-.09a7.914 7.914 0 00.512-2.758c.027-.113.05-.23.062-.344 0-.097-.046-.175-.054-.273-.008-.098 0-.367 0-.55a43.042 43.042 0 010-11.25 8.018 8.018 0 00-2.864-7.13zm-97.008 36.344a7.909 7.909 0 014.672-4 8 8 0 014.898 15.199 8.001 8.001 0 01-10.066-5.168 7.934 7.934 0 01.496-6.031zm0 0"/><path d="M176.066 320h16v16h-16zm0 32h16v16h-16zm48-128h16v16h-16zm32 0h16v16h-16zm72-144h16v32h-16zm0 48h16v16h-16zm0 32h16v16h-16zm0 0"/></svg>