<?xml version="1.0" encoding="utf-8"?>
<!-- Generator: Adobe Illustrator 23.0.3, SVG Export Plug-In . SVG Version: 6.00 Build 0)  -->
<svg version="1.1" id="Layer_1" xmlns="http://www.w3.org/2000/svg" xmlns:xlink="http://www.w3.org/1999/xlink" x="0px" y="0px"
	 viewBox="0 0 510.2 510.2" style="enable-background:new 0 0 510.2 510.2;" xml:space="preserve">
<style type="text/css">
	.st0{fill:#EEEDEE;}
	.st1{fill:#E91956;}
</style>
<g>
	<path class="st0" d="M255,31.9c30.3,0,59.6,5.9,87.2,17.6c26.7,11.3,50.7,27.5,71.2,48c20.6,20.6,36.8,44.6,48,71.2
		c11.7,27.6,17.6,57,17.6,87.2s-5.9,59.6-17.6,87.2c-11.3,26.7-27.5,50.7-48,71.2c-20.6,20.6-44.6,36.8-71.2,48
		c-27.6,11.7-57,17.6-87.2,17.6s-59.6-5.9-87.2-17.6c-26.7-11.3-50.7-27.5-71.2-48c-20.6-20.6-36.8-44.6-48-71.2
		c-11.7-27.6-17.6-57-17.6-87.2s5.9-59.6,17.6-87.2c11.3-26.7,27.5-50.7,48-71.2c20.6-20.6,44.6-36.8,71.2-48
		C195.4,37.8,224.7,31.9,255,31.9 M255,0.9C114.1,0.9-0.1,115.1-0.1,256S114.1,511.1,255,511.1S510.1,396.9,510.1,256
		S395.9,0.9,255,0.9L255,0.9z"/>
</g>
<g>
	<g>
		<circle class="st1" cx="255.1" cy="255.1" r="46.4"/>
	</g>
	<g>
		<circle class="st1" cx="109" cy="255.1" r="46.4"/>
	</g>
	<g>
		<circle class="st1" cx="401.3" cy="255.1" r="46.4"/>
	</g>
</g>
</svg>
