<svg height="418pt" viewBox="0 -9 418.93687 418" width="418pt" xmlns="http://www.w3.org/2000/svg"><path d="m260.667969 263.34375c0 26.390625-21.394531 47.785156-47.785157 47.785156-26.394531 0-47.789062-21.394531-47.789062-47.785156 0-26.394531 21.394531-47.789062 47.789062-47.789062 26.390626 0 47.785157 21.394531 47.785157 47.789062zm0 0" fill="#ea3457"/><path d="m212.882812 317.957031c-30.117187 0-54.613281-24.5-54.613281-54.613281 0-30.117188 24.496094-54.613281 54.613281-54.613281 30.113282 0 54.613282 24.496093 54.613282 54.613281 0 30.113281-24.5 54.613281-54.613282 54.613281zm0-95.574219c-22.585937 0-40.960937 18.375-40.960937 40.960938s18.375 40.957031 40.960937 40.957031c22.585938 0 40.957032-18.371093 40.957032-40.957031s-18.371094-40.960938-40.957032-40.960938zm0 0" fill="#ea3457"/><path d="m60.53125 342.816406c14.707031 3.449219 29.09375 8.214844 42.988281 14.257813l64.585938 28.078125c24.535156 10.667968 52.316406 11.078125 77.152343 1.144531l51.921876-20.769531 9.300781-2.324219c24.660156-6.164063 45.078125-23.386719 55.316406-46.648437l50.3125-114.347657h-4.15625c-16.421875 0-31.890625 7.734375-41.742187 20.871094l-61.925782 71.335937" fill="#fff"/><path d="m208.070312 400.230469c-14.59375 0-29.179687-2.945313-42.6875-8.816407l-64.589843-28.082031c-13.472657-5.855469-27.542969-10.523437-41.820313-13.871093-3.671875-.859376-5.949218-4.53125-5.089844-8.203126.859376-3.667968 4.535157-5.957031 8.207032-5.089843 15.070312 3.535156 29.925781 8.460937 44.152344 14.644531l64.585937 28.078125c22.710937 9.875 48.902344 10.261719 71.898437 1.066406l51.914063-20.769531c.289063-.113281.582031-.207031.882813-.28125l9.300781-2.328125c22.449219-5.613281 41.414062-21.605469 50.722656-42.777344l45.890625-104.289062c-11.75 1.726562-22.5625 8.058593-29.765625 17.664062l-62.222656 71.714844c-2.472657 2.84375-6.789063 3.148437-9.632813.679687-2.847656-2.472656-3.152344-6.78125-.683594-9.628906l61.921876-71.335937c10.78125-14.402344 28.429687-23.222657 46.898437-23.222657h4.15625c2.308594 0 4.457031 1.164063 5.71875 3.09375 1.257813 1.929688 1.457031 4.371094.53125 6.480469l-50.3125 114.34375c-11 25.003907-33.394531 43.898438-59.90625 50.527344l-8.855469 2.210937-51.488281 20.597657c-12.675781 5.066406-26.203125 7.59375-39.726563 7.59375zm0 0" fill="#602f75"/><path d="m152.003906 329.234375.339844-.117187c11.792969-3.929688 24.144531-5.933594 36.570312-5.933594h90.117188c13.363281 0 24.195312-10.832032 24.195312-24.195313s-10.832031-24.195312-24.195312-24.195312h-64.59375c-15.421875 0-30.625-4.121094-43.734375-12.25-15.804687-9.800781-41.386719-23.035157-73.144531-30.089844-54.441406-12.101563-90.734375 36.292969-90.734375 36.292969v66.539062l21.210937 2.121094c1.265625.125 2.527344.261719 3.789063.40625" fill="#fff"/><path d="m31.835938 344.640625c-.261719 0-.527344-.015625-.796876-.046875l-24.890624-2.519531c-3.492188-.347657-6.148438-3.285157-6.148438-6.789063v-66.539062c0-1.476563.480469-2.910156 1.367188-4.09375 1.585937-2.121094 39.601562-51.785156 97.671874-38.863282 32.660157 7.261719 58.957032 20.839844 75.265626 30.957032 11.839843 7.34375 25.71875 11.222656 40.136718 11.222656h64.589844c17.105469 0 31.023438 13.917969 31.023438 31.023438 0 17.109374-13.914063 31.023437-31.023438 31.023437h-90.117188c-11.714843 0-23.292968 1.882813-34.40625 5.582031l-2.507812-6.363281-2.117188-6.488281.34375-.113282c12.472657-4.160156 25.5-6.269531 38.6875-6.269531h90.117188c9.578125 0 17.371094-7.792969 17.371094-17.371093 0-9.578126-7.792969-17.371094-17.371094-17.371094h-64.589844c-16.964844 0-33.328125-4.589844-47.332031-13.277344-15.40625-9.554688-40.242187-22.382812-71.027344-29.230469-43.976562-9.753906-75.621093 24-82.425781 32.050781v57.941407l18.960938 1.929687c3.742187.4375 6.429687 3.820313 5.992187 7.570313-.40625 3.472656-3.355469 6.035156-6.773437 6.035156zm0 0" fill="#602f75"/><path d="m236.6875 178.011719s-30.246094-84.6875 78.636719-78.636719c0 0 6.050781 120.976562-78.636719 78.636719zm0 0" fill="#00e7ff"/><path d="m268.867188 193.839844c-10.5 0-22.273438-3.242188-35.234376-9.722656-1.570312-.785157-2.78125-2.152344-3.375-3.808594-.527343-1.480469-12.726562-36.566406 6.660157-62.519532 14.089843-18.863281 40.582031-27.359374 78.785156-25.230468 3.484375.191406 6.261719 2.984375 6.433594 6.476562.136719 2.714844 2.953125 66.699219-29.675781 88.003906-6.9375 4.535157-14.820313 6.800782-23.59375 6.800782zm-26.527344-20.679688c17.933594 8.414063 32.269531 9.234375 42.660156 2.449219 19.347656-12.636719 23.53125-50.148437 23.632812-69.671875-29.933593-.726562-50.3125 6.015625-60.777343 20.023438-12.453125 16.671874-7.613281 39.613281-5.515625 47.199218zm0 0" fill="#602f75"/><path d="m191.960938 93.054688s-92.71875 34.078124-87.179688-85.582032c0 0 132.828125-7.871094 87.179688 85.582032zm0 0" fill="#ffe600"/><g fill="#602f75"><path d="m164.460938 104.390625c-12.105469 0-26.070313-2.589844-38.257813-11.519531-20.671875-15.148438-30.171875-43.988282-28.242187-85.714844.164062-3.488281 2.929687-6.289062 6.417968-6.496094 2.953125-.171875 72.851563-3.902344 96.371094 31.40625 10.953125 16.429688 10.054688 37.953125-2.660156 63.980469-.773438 1.582031-2.125 2.804687-3.777344 3.410156-.917969.339844-13.734375 4.933594-29.851562 4.933594zm27.496093-11.335937h.066407zm-80.558593-78.960938c-.589844 33.417969 7.09375 56.199219 22.871093 67.761719 18.890625 13.839843 44.683594 7.960937 52.792969 5.597656 9.277344-20.136719 10.0625-36.210937 2.328125-47.820313-14.375-21.574218-56.53125-25.796874-77.992187-25.539062zm0 0"/><path d="m217.777344 279.21875c-.214844 0-.429688-.007812-.648438-.03125-3.636718-.34375-6.359375-3.488281-6.175781-7.140625.402344-8.027344 1.089844-15.648437 2.023437-22.867187 2.839844-48.3125 1.375-160.820313-69.757812-191.945313-3.453125-1.511719-5.03125-5.535156-3.519531-8.988281 1.507812-3.449219 5.542969-5.027344 8.992187-3.519532 41.917969 18.339844 68.289063 64 76.246094 132.042969.714844 6.097657 1.25 12.109375 1.648438 17.964844 18.734374-47.339844 47.394531-64.066406 49.101562-65.023437 3.28125-1.855469 7.445312-.675782 9.296875 2.605468 1.839844 3.277344.683594 7.429688-2.585937 9.28125-.722657.421875-44.671876 26.800782-55.703126 108.132813-.839843 13.914062-2.050781 22.785156-2.164062 23.597656-.472656 3.40625-3.382812 5.890625-6.753906 5.890625zm0 0"/></g></svg>