<?xml version="1.0" encoding="iso-8859-1"?>
<!-- Generator: Adobe Illustrator 19.0.0, SVG Export Plug-In . SVG Version: 6.00 Build 0)  -->
<svg version="1.1" id="Capa_1" xmlns="http://www.w3.org/2000/svg" xmlns:xlink="http://www.w3.org/1999/xlink" x="0px" y="0px"
	 viewBox="0 0 393.872 393.872" style="enable-background:new 0 0 393.872 393.872;" xml:space="preserve">
<g>
	<path style="fill:#FFFFFF;" d="M350.889,144.372c-0.8-1.3-1.2-2.8-1.1-4.3c2.2-31.3-3.3-54.3-16.3-68.3
		c-10.9-11.7-23.8-13.4-27.1-13.6c-2.6,0.9-4.9,1.9-7.1,3c20.2,10.1,34.1,30.9,34.1,55c0,25.1-15.1,46.7-36.7,56.2
		c13.8,2.2,26.8-2.3,27.7-2.6c3.5-1.3,7.5,0.6,8.7,4.1c1.3,3.5-0.5,7.4-4.1,8.7c-0.9,0.3-11.4,4-24.6,4c-9.8,0-21.2-2.1-31.2-9.1
		c-0.4,0-0.9,0-1.3,0c-20.9,0-39.3-10.4-50.4-26.3c-1.2,0.9-2.6,1.3-4,1.3c-1.5,0-3-0.5-4.2-1.5c-3-2.3-3.5-6.6-1.1-9.6
		c0.8-1.1,1.6-2.2,2.4-3.3c-2.7-6.9-4.1-14.3-4.1-22.1c0-19.8,9.3-37.3,23.8-48.6c0.9-1.3,2.2-2.2,3.7-2.6
		c9.7-6.4,21.4-10.2,33.9-10.2c3.5,0,6.9,0.3,10.2,0.9c3.9-3,8.6-5.7,14-8.1c-10.3-18.3-25.5-15.5-27.3-15.1c-1.1,0.2-2.1,0.2-3.2,0
		l-12.3,16.7c-1.3,1.8-3.4,2.8-5.5,2.8c-1.4,0-2.8-0.4-4.1-1.4c-3-2.2-3.7-6.5-1.4-9.5l12.6-16.9c-25.2-19.4-45.4-6.1-51.3-1.3
		v332.6c9.2,16.4,19.1,24.9,29.5,25c0.1,0,0.2,0,0.3,0c17.7,0,35.3-23.5,40.6-32.6c1-1.7,2.8-3,4.8-3.3c8.9-1.5,15.2-5.1,18.6-10.6
		c6.3-10.4,1.6-25,1.6-25.1c-1.1-3.4,0.5-7,3.8-8.4c27.9-12,30.3-38.1,29.3-52.4c-7.8,4.4-15.5,6.6-22.8,6.6
		c-3.4,0-6.8-0.5-10.1-1.4c-22.1-6.4-31.9-32.3-32.3-33.4c-1.3-3.5,0.5-7.5,4-8.8s7.4,0.5,8.8,4c0.1,0.3,7.9,20.6,23.4,25.1
		c8.7,2.5,18.8-0.5,29.9-9c0.5-0.4,1-0.7,1.5-0.9C384.389,195.872,352.289,146.472,350.889,144.372z M267.389,287.272
		c0,3.8-3.1,6.8-6.8,6.8c-20,0-31.7,33.3-31.8,33.6c-1,2.9-3.6,4.7-6.5,4.7c-0.7,0-1.4-0.1-2.2-0.4c-3.6-1.2-5.5-5.1-4.3-8.6
		c0.4-1.1,6.5-19,19-31.3c0,0,0,0,0-0.1c0.2-1,4.8-22.4-17.3-44.6c-2.7-2.7-2.7-7,0-9.7s7-2.7,9.7,0c16.8,16.8,21.1,33.7,21.7,44.9
		c3.6-1.4,7.5-2.2,11.7-2.2C264.389,280.472,267.389,283.472,267.389,287.272z"/>
	<path style="fill:#FFFFFF;" d="M189.989,22.372c-6.7-5.5-27.9-18.7-54.2,4.1c6.6,8.6,17.1,22.2,21.2,26.3c2.7,2.7,2.7,7,0,9.7
		c-1.3,1.3-3.1,2-4.8,2s-3.5-0.7-4.8-2c-5.6-5.6-19.6-24-24.5-30.4c-4.9-0.4-16.7,0.4-25.2,15.5c35.4,15.5,35.8,47,35.8,48.4
		c0,3.8-3.1,6.8-6.8,6.8c-3.8,0-6.8-3-6.8-6.8c0-1.2-0.8-26.6-32.5-37.8c-3.6,0.3-16.3,2.1-27.1,13.8c-12.9,14.1-18.4,37-16.1,68.1
		c0.1,1.5-0.3,3-1.1,4.3c-1.4,2.1-33.7,52.3,17.2,86.2l0.1,0.1c0.1,0.1,0.2,0.1,0.2,0.2c8.7,6.6,16.7,9.9,24,9.8
		c5.3-12.3,15.5-21.9,28.2-26.3c-2.8-13.9-0.6-28.3,3.1-39.7c-3.8,0.9-7.5,1.3-11.1,1.3c-27.1,0-46.3-23.6-47.2-24.8
		c-2.4-2.9-1.9-7.2,1.1-9.6c2.9-2.4,7.2-1.9,9.6,1.1c0.9,1.1,22.8,27.7,49.6,17.1c13.9-5.5,22.5-12.3,29.4-17.7
		c8.5-6.6,16.5-12.9,27.2-7.6c3.4,1.7,4.7,5.8,3.1,9.2c-1.7,3.4-5.8,4.7-9.2,3.1c-2.6-1.3-4.4-0.4-12.7,6.1
		c-5.4,4.3-12.4,9.7-22.3,14.8c-0.1,0.5-0.3,1-0.5,1.5c-0.6,1.3-10.9,22.4-6.7,42.6c0.8,0,1.7-0.1,2.5-0.1
		c11.2,0,21.6,3.9,29.7,10.4c0.4-1.7,1.3-3.2,2.9-4.2c2.2-1.5,12.9-9.8,4.5-22.4c-2.1-3.1-1.2-7.4,1.9-9.5c3.1-2.1,7.4-1.2,9.5,1.9
		c12.1,18.2,1.7,34.7-8.3,41.4c-0.8,0.5-1.6,0.8-2.4,1c6.3,8.1,10.1,18.3,10.1,29.3c0,21.2-13.8,39.1-32.9,45.4
		c-6.3,14-4,24.8-3.8,25.4c0.8,3.7-1.4,7.3-5,8.2c-0.5,0.1-1.1,0.2-1.6,0.2c-3.1,0-5.8-2-6.6-5.1c-0.2-0.7-2.7-11.6,1.7-26.3
		c-26.2-0.3-47.3-21.5-47.3-47.8c0-1.8,0.1-3.6,0.3-5.3c-6.3-0.5-12.7-2.7-19.3-6.3c-1,14.4,1.5,40.4,29.4,52.3
		c3.3,1.4,4.9,5.1,3.8,8.4c0,0.1-4.7,14.8,1.6,25.1c3.4,5.6,9.6,9.1,18.6,10.6c2,0.3,3.7,1.5,4.8,3.3c5.3,9.1,23,32.6,40.6,32.6
		c0.1,0,0.2,0,0.3,0c10.3-0.2,20.1-8.4,29.3-24.6v-333.3H189.989z M84.189,136.572c-16.9,0-30.7-13.8-30.7-30.7s13.8-30.7,30.7-30.7
		s30.7,13.8,30.7,30.7S101.089,136.572,84.189,136.572z"/>
</g>
<path style="fill:#602F75;" d="M363.489,138.872c2.1-34.1-4.7-59.9-20.1-76.4c-12-12.9-26.1-16.6-33.2-17.6
	c-10.9-23-29.4-27.4-40.6-26.4c-32.8-30.5-61.7-15.6-72.7-7.8c-11-7.9-39.9-22.8-72.6,7.7c-11.3-1.1-29.8,3.4-40.6,26.4
	c-7.1,1-21.2,4.7-33.2,17.6c-15.4,16.6-22.2,42.3-20.1,76.4c-2.9,4.9-9.7,18-11.8,34.4c-2.3,18.6,1.2,44.8,30.3,66.1
	c-3.4,19.9-0.2,54.1,31.6,70.9c-1.3,7.2-2.2,19.8,4.3,30.5c5.1,8.4,13.5,14,25,16.5c5.8,9,25.8,36.7,50.8,36.7c0.2,0,0.3,0,0.5,0
	c13.4-0.2,25.5-8.1,36-23.5c10.6,15.4,22.7,23.4,36,23.5c0.2,0,0.3,0,0.5,0c25,0,45-27.7,50.8-36.7c11.5-2.5,19.9-8.1,25-16.5
	c6.5-10.7,5.6-23.3,4.3-30.5c31.7-16.8,34.9-51.1,31.6-70.9C395.889,202.072,369.889,149.972,363.489,138.872z M334.489,229.972
	c-0.5,0.2-1,0.5-1.5,0.9c-11.1,8.5-21.2,11.5-29.9,9c-15.4-4.5-23.3-24.8-23.4-25.1c-1.3-3.5-5.2-5.3-8.8-4c-3.5,1.3-5.3,5.2-4,8.8
	c0.4,1.1,10.2,27,32.3,33.4c3.3,1,6.7,1.4,10.1,1.4c7.4,0,15-2.2,22.8-6.6c1,14.3-1.4,40.5-29.3,52.4c-3.2,1.4-4.9,5.1-3.8,8.4
	c0,0.1,4.7,14.8-1.6,25.1c-3.4,5.6-9.6,9.1-18.6,10.6c-2,0.3-3.7,1.5-4.8,3.3c-5.3,9.1-23,32.6-40.6,32.6c-0.1,0-0.2,0-0.3,0
	c-10.4-0.2-20.3-8.6-29.5-25v-332.5c5.9-4.9,26-18.1,51.3,1.3l-12.5,16.9c-2.3,3-1.6,7.3,1.4,9.5c1.2,0.9,2.7,1.4,4.1,1.4
	c2.1,0,4.1-1,5.5-2.8l12.4-16.6c1,0.2,2.1,0.3,3.2,0c1.8-0.4,17-3.2,27.3,15.1c-5.5,2.4-10.1,5.1-14,8.1c-21.7,16.4-22,39.2-22,40.4
	c0,3.8,3.1,6.8,6.8,6.8s6.8-3.1,6.8-6.8c0-0.2,0.3-22.5,25.4-34.8c2.2-1.1,4.6-2.1,7.1-3c3.3,0.2,16.2,1.9,27.1,13.6
	c13.1,14,18.6,37,16.3,68.3c-0.1,1.5,0.3,3,1.1,4.3C352.289,146.472,384.389,195.872,334.489,229.972z M160.689,380.272
	c-0.1,0-0.2,0-0.3,0c-17.7,0-35.3-23.5-40.6-32.6c-1-1.7-2.8-3-4.8-3.3c-8.9-1.5-15.2-5.1-18.6-10.6c-6.3-10.4-1.6-25-1.6-25.1
	c1.1-3.4-0.5-7-3.8-8.4c-27.8-11.9-30.3-37.9-29.4-52.3c6.6,3.7,13.1,5.8,19.3,6.3c1.1,0.1,2.2,0.2,3.2,0.2c3.4,0,6.8-0.5,10.1-1.4
	c12-3.5,20.3-12.6,25.5-20.5c3.7,5.9,8.8,11.3,15.7,15.9c1.2,0.8,2.5,1.1,3.8,1.1c2.2,0,4.4-1.1,5.7-3c2.1-3.1,1.2-7.4-1.9-9.5
	c-10.3-6.9-15.2-15.9-17.1-25.2c-4.2-20.2,6.1-41.4,6.7-42.6c0.2-0.5,0.4-1,0.5-1.5c9.9-5.1,16.8-10.6,22.3-14.8
	c8.3-6.5,10.1-7.4,12.7-6.1c3.4,1.7,7.5,0.3,9.2-3.1c1.7-3.4,0.3-7.5-3.1-9.2c-10.7-5.3-18.7,0.9-27.2,7.6
	c-6.9,5.4-15.5,12.2-29.4,17.7c-26.7,10.7-48.6-15.9-49.6-17.1c-2.4-2.9-6.7-3.4-9.6-1.1c-2.9,2.4-3.4,6.7-1.1,9.6
	c1,1.2,20.2,24.8,47.2,24.8c3.6,0,7.3-0.4,11.1-1.3c-3.7,11.4-5.9,25.8-3.1,39.7c0.1,0.6,0.3,1.3,0.4,1.9
	c-2.2,4.9-9.8,19.8-22.7,23.5c-1.9,0.6-3.9,0.8-5.9,0.8c-7.3,0.1-15.3-3.2-24-9.8c-0.1-0.1-0.2-0.1-0.2-0.2l-0.1-0.1
	c-50.9-33.9-18.6-84.1-17.2-86.2c0.8-1.3,1.2-2.8,1.1-4.3c-2.2-31.1,3.2-54,16.1-68.1c10.7-11.7,23.4-13.5,27.1-13.8
	c31.6,11.2,32.4,36.6,32.5,37.8c0,3.8,3.1,6.8,6.8,6.8c3.8,0,6.8-3.1,6.8-6.8c0-1.4-0.4-32.9-35.8-48.4
	c8.5-15.1,20.3-15.9,25.2-15.5c4.9,6.4,18.9,24.8,24.5,30.4c1.3,1.3,3.1,2,4.8,2s3.5-0.7,4.8-2c2.7-2.7,2.7-7,0-9.7
	c-4-4.1-14.6-17.6-21.2-26.3c26.3-22.8,47.5-9.6,54.2-4.1v333.3C180.889,371.772,170.989,380.072,160.689,380.272z"/>
<g>
	<path style="fill:#FFE600;" d="M127.989,307.272c2.8-9.4,8.4-20.3,19.3-31.2c2.7-2.7,7-2.7,9.7,0s2.7,7,0,9.7
		c-6.6,6.6-10.8,13.2-13.5,19.2c19.1-6.3,32.9-24.2,32.9-45.4c0-11.1-3.8-21.2-10.1-29.3c-0.4,0.1-0.9,0.2-1.3,0.2
		c-2.2,0-4.4-1.1-5.7-3c-1.1-1.6-1.4-3.5-1-5.2c-8.2-6.5-18.5-10.4-29.7-10.4c-0.8,0-1.7,0-2.5,0.1c1.9,9.3,6.9,18.3,17.1,25.2
		c3.1,2.1,4,6.3,1.9,9.5c-1.3,2-3.5,3-5.7,3c-1.3,0-2.6-0.4-3.8-1.1c-6.9-4.6-12-10-15.7-15.9c-5.2,7.9-13.6,17-25.5,20.5
		c-3.3,1-6.7,1.4-10.1,1.4c-1.1,0-2.1-0.1-3.2-0.2c-0.2,1.7-0.3,3.5-0.3,5.3C80.689,285.672,101.889,306.972,127.989,307.272z"/>
	<path style="fill:#FFE600;" d="M84.589,240.672c2,0,4-0.3,5.9-0.8c12.9-3.7,20.5-18.6,22.7-23.5c-0.2-0.6-0.3-1.3-0.4-1.9
		C100.089,218.772,89.889,228.372,84.589,240.672z"/>
</g>
<g>
	<path style="fill:#00E7FF;" d="M262.189,166.772c-10.2-13.5-14.6-25.2-17.8-33.8c-3.1-8.1-4.3-10.7-6.3-11.5
		c-3.5,9.8-8.4,19.8-15.3,28.5c-0.4,0.5-0.9,0.9-1.4,1.3c11.1,15.9,29.5,26.3,50.4,26.3c0.4,0,0.9,0,1.3,0
		C269.289,174.772,265.489,171.272,262.189,166.772z"/>
	<path style="fill:#00E7FF;" d="M237.989,64.872c0.6-0.2,1.2-0.3,1.8-0.3c3.8-0.1,6.9,3,6.9,6.7c0,1.1,0.2,17.5-4.7,37
		c8.6,2.7,11.8,11,15.1,19.8c3.1,8.2,7,18.5,15.9,30.4c6.5,8.7,15.2,12.4,23.5,13.8c21.6-9.5,36.7-31.1,36.7-56.2
		c0-24.1-13.9-45-34.1-55c-25.1,12.4-25.4,34.6-25.4,34.8c0,3.8-3.1,6.8-6.8,6.8s-6.8-3.1-6.8-6.8c0-1.2,0.3-24,22-40.4
		c-3.3-0.6-6.7-0.9-10.2-0.9C259.389,54.672,247.689,58.472,237.989,64.872z"/>
	<path style="fill:#00E7FF;" d="M233.089,71.572c0-1.5,0.4-2.9,1.2-4c-14.5,11.2-23.8,28.8-23.8,48.6c0,7.8,1.5,15.3,4.1,22.1
		C233.389,111.272,233.089,71.972,233.089,71.572z"/>
</g>
<ellipse style="fill:#EA3457;" cx="84.177" cy="105.845" rx="30.7" ry="30.7"/>
<g>
	<path style="fill:#602F75;" d="M156.989,276.072c-2.7-2.7-7-2.7-9.7,0c-10.9,10.9-16.5,21.8-19.3,31.2c-4.4,14.7-1.8,25.6-1.7,26.3
		c0.8,3.1,3.5,5.1,6.6,5.1c0.5,0,1.1-0.1,1.6-0.2c3.6-0.9,5.9-4.6,5-8.2c-0.1-0.6-2.5-11.4,3.8-25.4c2.7-6,6.9-12.5,13.5-19.2
		C159.589,283.072,159.589,278.772,156.989,276.072z"/>
	<path style="fill:#602F75;" d="M273.089,158.572c-9-12-12.8-22.2-15.9-30.4c-3.3-8.8-6.5-17.1-15.1-19.8c4.8-19.5,4.7-35.9,4.7-37
		c-0.1-3.8-3.1-6.9-6.9-6.7c-0.6,0-1.2,0.1-1.8,0.3c-1.5,0.4-2.8,1.4-3.7,2.6c-0.8,1.1-1.3,2.5-1.2,4c0,0.4,0.3,39.7-18.5,66.7
		c-0.8,1.1-1.6,2.2-2.4,3.3c-2.3,3-1.8,7.3,1.1,9.6c1.3,1,2.7,1.5,4.2,1.5c1.4,0,2.8-0.5,4-1.3c0.5-0.4,1-0.8,1.4-1.3
		c6.9-8.7,11.8-18.7,15.3-28.5c1.9,0.8,3.2,3.4,6.3,11.5c3.2,8.6,7.6,20.3,17.8,33.8c3.4,4.5,7.1,8,11,10.7c10,7,21.3,9.1,31.2,9.1
		c13.2,0,23.8-3.7,24.6-4c3.5-1.3,5.4-5.2,4.1-8.7s-5.2-5.4-8.7-4.1c-0.9,0.3-13.9,4.9-27.7,2.6
		C288.289,170.972,279.589,167.272,273.089,158.572z"/>
	<path style="fill:#602F75;" d="M159.189,227.272c1.3,2,3.5,3,5.7,3c0.4,0,0.9-0.1,1.3-0.2c0.8-0.2,1.7-0.5,2.4-1
		c10-6.7,20.4-23.2,8.3-41.4c-2.1-3.1-6.3-4-9.5-1.9c-3.1,2.1-4,6.3-1.9,9.5c8.4,12.6-2.3,20.9-4.5,22.4c-1.5,1-2.5,2.6-2.9,4.2
		C157.889,223.772,158.189,225.672,159.189,227.272z"/>
	<path style="fill:#602F75;" d="M260.589,280.472c-4.2,0-8.1,0.8-11.7,2.2c-0.7-11.1-4.9-28.1-21.7-44.9c-2.7-2.7-7-2.7-9.7,0
		s-2.7,7,0,9.7c22.2,22.2,17.6,43.6,17.3,44.6c0,0,0,0,0,0.1c-12.5,12.3-18.6,30.2-19,31.3c-1.2,3.6,0.7,7.4,4.3,8.6
		c0.7,0.2,1.4,0.4,2.2,0.4c2.9,0,5.5-1.8,6.5-4.7c0.1-0.3,11.8-33.6,31.8-33.6c3.8,0,6.8-3.1,6.8-6.8
		S264.389,280.472,260.589,280.472z"/>
</g>
<g>
</g>
<g>
</g>
<g>
</g>
<g>
</g>
<g>
</g>
<g>
</g>
<g>
</g>
<g>
</g>
<g>
</g>
<g>
</g>
<g>
</g>
<g>
</g>
<g>
</g>
<g>
</g>
<g>
</g>
</svg>
