<svg height="488pt" viewBox="-12 0 488 488" width="488pt" xmlns="http://www.w3.org/2000/svg" xmlns:xlink="http://www.w3.org/1999/xlink"><linearGradient id="a"><stop offset="0" stop-color="#fff200"/><stop offset="1" stop-color="#cd118c"/></linearGradient><linearGradient id="b" gradientUnits="userSpaceOnUse" x1="-25.352" x2="486.648" xlink:href="#a" y1="478.528" y2="6.528"/><linearGradient id="c" gradientUnits="userSpaceOnUse" x1="2.848" x2="514.848" xlink:href="#a" y1="509.12" y2="37.12"/><linearGradient id="d" gradientUnits="userSpaceOnUse" x1="24.904" x2="536.904" xlink:href="#a" y1="533.048" y2="61.048"/><linearGradient id="e" gradientUnits="userSpaceOnUse" x1="-129.648" x2="382.352" xlink:href="#a" y1="365.4" y2="-106.6"/><linearGradient id="f" gradientUnits="userSpaceOnUse" x1="-162.24" x2="349.76" xlink:href="#a" y1="330.048" y2="-141.952"/><linearGradient id="g" gradientUnits="userSpaceOnUse" x1="-159.392" x2="352.608" xlink:href="#a" y1="333.136" y2="-138.864"/><linearGradient id="h" gradientUnits="userSpaceOnUse" x1="-121.864" x2="390.136" xlink:href="#a" y1="373.84" y2="-98.16"/><linearGradient id="i" gradientUnits="userSpaceOnUse" x1="-59.72" x2="452.28" xlink:href="#a" y1="441.256" y2="-30.744"/><linearGradient id="j" gradientUnits="userSpaceOnUse" x1="99.432" x2="611.432" xlink:href="#a" y1="613.888" y2="141.888"/><linearGradient id="k" gradientUnits="userSpaceOnUse" x1="61.904" x2="573.904" xlink:href="#a" y1="573.184" y2="101.184"/><linearGradient id="l" gradientUnits="userSpaceOnUse" x1="-.24" x2="511.76" xlink:href="#a" y1="505.776" y2="33.776"/><linearGradient id="m" gradientUnits="userSpaceOnUse" x1="-70.36" x2="441.64" xlink:href="#a" y1="429.712" y2="-42.288"/><linearGradient id="n" gradientUnits="userSpaceOnUse" x1="-20.36" x2="491.64" xlink:href="#a" y1="483.952" y2="11.952"/><linearGradient id="o" gradientUnits="userSpaceOnUse" x1="-95.832" x2="416.168" xlink:href="#a" y1="402.08" y2="-69.92"/><linearGradient id="p" gradientUnits="userSpaceOnUse" x1="81.648" x2="593.648" xlink:href="#a" y1="594.6" y2="122.6"/><path d="m283.328125 234.792969-14.023437 10.070312-14.023438-10.070312c-2.792969-2.007813-6.554688-2.007813-9.34375 0l-13.984375 10.0625-13.992187-10.0625c-2.792969-2.007813-6.554688-2.007813-9.34375 0l-13.984376 10.0625-13.953124-10.0625c-3.585938-2.585938-8.585938-1.773438-11.171876 1.8125-2.585937 3.582031-1.773437 8.585937 1.8125 11.171875l18.632813 13.429687c2.792969 2.011719 6.558594 2.011719 9.351563 0l13.984374-10.0625 13.992188 10.0625c2.789062 2.007813 6.550781 2.007813 9.34375 0l13.992188-10.0625 14.015624 10.0625c2.789063 2.007813 6.550782 2.007813 9.34375 0l18.695313-13.421875c3.585937-2.582031 4.40625-7.582031 1.824219-11.167968-2.582032-3.589844-7.582032-4.40625-11.167969-1.824219zm0 0" fill="url(#b)"/><path d="m208 272c-4.417969 0-8 3.582031-8 8v80c0 4.417969 3.582031 8 8 8s8-3.582031 8-8v-80c0-4.417969-3.582031-8-8-8zm0 0" fill="url(#c)"/><path d="m256 272c-4.417969 0-8 3.582031-8 8v80c0 4.417969 3.582031 8 8 8s8-3.582031 8-8v-80c0-4.417969-3.582031-8-8-8zm0 0" fill="url(#d)"/><path d="m232 64c4.417969 0 8-3.582031 8-8v-48c0-4.417969-3.582031-8-8-8s-8 3.582031-8 8v48c0 4.417969 3.582031 8 8 8zm0 0" fill="url(#e)"/><path d="m137.070312 83.574219c1.421876 2.496093 4.066407 4.042969 6.9375 4.046875 2.871094.007812 5.527344-1.523438 6.957032-4.015625 1.429687-2.488281 1.414062-5.554688-.035156-8.03125l-24-41.597657c-1.421876-2.496093-4.066407-4.039062-6.9375-4.046874-2.871094-.007813-5.527344 1.527343-6.957032 4.015624-1.429687 2.488282-1.414062 5.554688.035156 8.03125zm0 0" fill="url(#f)"/><path d="m34.007812 126.929688 41.601563 24c3.820313 2.171874 8.683594.851562 10.878906-2.957032 2.199219-3.808594.914063-8.675781-2.878906-10.902344l-41.601563-24c-3.824218-2.171874-8.683593-.851562-10.882812 2.957032s-.910156 8.675781 2.882812 10.902344zm0 0" fill="url(#g)"/><path d="m64 232c0-4.417969-3.582031-8-8-8h-48c-4.417969 0-8 3.582031-8 8s3.582031 8 8 8h48c4.417969 0 8-3.582031 8-8zm0 0" fill="url(#h)"/><path d="m75.574219 313.070312-41.597657 24c-2.496093 1.421876-4.039062 4.066407-4.046874 6.9375-.007813 2.871094 1.527343 5.527344 4.015624 6.957032 2.488282 1.429687 5.554688 1.414062 8.03125-.035156l41.597657-24c2.496093-1.421876 4.042969-4.066407 4.046875-6.9375.007812-2.871094-1.523438-5.527344-4.015625-6.957032-2.488281-1.429687-5.554688-1.414062-8.03125.035156zm0 0" fill="url(#i)"/><path d="m429.992188 337.070312-41.601563-24c-2.476563-1.449218-5.539063-1.464843-8.027344-.035156-2.492187 1.429688-4.023437 4.085938-4.015625 6.957032.003906 2.871093 1.546875 5.515624 4.042969 6.9375l41.601563 24c3.824218 2.171874 8.683593.851562 10.882812-2.957032s.910156-8.675781-2.882812-10.902344zm0 0" fill="url(#j)"/><path d="m456 224h-48c-4.417969 0-8 3.582031-8 8s3.582031 8 8 8h48c4.417969 0 8-3.582031 8-8s-3.582031-8-8-8zm0 0" fill="url(#k)"/><path d="m384.433594 152c1.402344.003906 2.785156-.367188 4-1.070312l41.597656-24c3.792969-2.226563 5.082031-7.09375 2.882812-10.902344-2.199218-3.808594-7.058593-5.128906-10.882812-2.957032l-41.597656 24c-3.136719 1.8125-4.664063 5.503907-3.730469 9 .9375 3.496094 4.109375 5.929688 7.730469 5.929688zm0 0" fill="url(#l)"/><path d="m316 86.503906c3.828125 2.210938 8.71875.898438 10.929688-2.929687l24-41.597657c1.449218-2.476562 1.464843-5.542968.035156-8.03125-1.429688-2.488281-4.085938-4.023437-6.957032-4.015624-2.871093.007812-5.515624 1.550781-6.9375 4.046874l-24 41.597657c-2.207031 3.828125-.894531 8.71875 2.929688 10.929687zm0 0" fill="url(#m)"/><path d="m232 80c-67.917969-.042969-127.609375 45-146.199219 110.324219-18.59375 65.320312 8.4375 135.046875 66.199219 170.773437v38.902344c0 4.417969 3.582031 8 8 8h144c4.417969 0 8-3.582031 8-8v-38.902344c57.761719-35.726562 84.792969-105.453125 66.199219-170.773437-18.589844-65.324219-78.28125-110.367188-146.199219-110.324219zm68 269.640625c-2.472656 1.425781-3.996094 4.0625-4 6.917969v35.441406h-128v-35.441406c-.003906-2.855469-1.527344-5.492188-4-6.917969-53.308594-30.777344-79.296875-93.523437-63.367188-152.980469 15.933594-59.457031 69.8125-100.800781 131.367188-100.800781s115.433594 41.34375 131.367188 100.800781c15.929687 59.457032-10.058594 122.203125-63.367188 152.980469zm0 0" fill="url(#n)"/><path d="m240 120c0-4.417969-3.582031-8-8-8-42.851562.089844-82.429688 22.9375-103.9375 60-1.574219 2.480469-1.664062 5.625-.234375 8.191406 1.433594 2.566406 4.15625 4.140625 7.09375 4.101563 2.941406-.042969 5.621094-1.6875 6.980469-4.292969 18.648437-32.125 52.953125-51.925781 90.097656-52 4.417969 0 8-3.582031 8-8zm0 0" fill="url(#o)"/><path d="m304 424h-144c-4.417969 0-8 3.582031-8 8v48c0 4.417969 3.582031 8 8 8h144c4.417969 0 8-3.582031 8-8v-48c0-4.417969-3.582031-8-8-8zm-8 48h-128v-32h128zm0 0" fill="url(#p)"/></svg>