<?xml version="1.0" encoding="utf-8"?>
<!-- Generator: Adobe Illustrator 23.0.3, SVG Export Plug-In . SVG Version: 6.00 Build 0)  -->
<svg version="1.1" id="Capa_1" xmlns="http://www.w3.org/2000/svg" xmlns:xlink="http://www.w3.org/1999/xlink" x="0px" y="0px"
	 viewBox="0 0 512 512" style="enable-background:new 0 0 512 512;" xml:space="preserve">
<style type="text/css">
	.st0{fill:#EEEEEE;}
	.st1{fill:#EB1555;}
</style>
<path class="st0" d="M511.9,189.3H383.1V0H111.5L0.1,111.5V512h383v-76.3h128.8L511.9,189.3L511.9,189.3z M112.8,41.2v71.5H41.3
	L112.8,41.2z M353.1,482h-323V142.7h112.7V30h210.3v159.3h-283v246.4h283V482z M481.9,405.7H100.1V219.3h381.8L481.9,405.7
	L481.9,405.7z"/>
<path class="st1" d="M162.3,335.8H180c24.2,0,44-19.7,44-44s-19.7-44-44-44h-47.7v130.9h30V335.8z M162.3,277.8H180
	c7.7,0,14,6.3,14,14s-6.3,14-14,14h-17.7V277.8z"/>
<path class="st1" d="M395.8,335.8h41.3v-30h-41.3v-28h52v-30h-82v130.9h30V335.8z"/>
<path class="st1" d="M339.2,334.2v-42.4c0-24.3-19.8-44.1-44.1-44.1h-47.6v130.5h47.6C319.4,378.3,339.2,358.5,339.2,334.2z
	 M277.5,277.8h17.6c7.8,0,14.1,6.3,14.1,14.1v42.4c0,7.8-6.3,14.1-14.1,14.1h-17.6V277.8z"/>
<path class="st0" d="M178.1,112.7h137.4v30H178.1L178.1,112.7z"/>
</svg>
