<?xml version="1.0" encoding="iso-8859-1"?>
<!-- Generator: Adobe Illustrator 19.0.0, SVG Export Plug-In . SVG Version: 6.00 Build 0)  -->
<svg version="1.1" id="Capa_1" xmlns="http://www.w3.org/2000/svg" xmlns:xlink="http://www.w3.org/1999/xlink" x="0px" y="0px"
	 viewBox="0 0 512.001 512.001" style="enable-background:new 0 0 512.001 512.001;" xml:space="preserve">
<g>
	<g>
		<path d="M508.113,211.83c-0.729-4.068-4.268-7.029-8.4-7.029H454.23c-4.722-18.545-12.089-36.313-21.875-52.758l32.175-32.175
			c2.926-2.924,3.332-7.526,0.962-10.917c-16.968-24.334-38.107-45.474-62.442-62.442c-3.391-2.368-7.992-1.962-10.917,0.962
			l-32.175,32.175c-16.445-9.786-34.214-17.153-52.758-21.875V12.288c0-4.132-2.961-7.671-7.029-8.4
			c-29.221-5.158-59.12-5.158-88.342,0c-0.628,0.152-1.236,0.376-1.812,0.669c-24.137-8.466-50.856-5.011-72.046,9.316
			c-21.189,14.327-34.349,37.836-35.484,63.39c-2.018,0.222-3.998,0.565-5.967,0.941c-0.36,0.069-0.734,0.098-1.093,0.172
			c-2.412,0.496-4.78,1.114-7.105,1.831c-0.735,0.227-1.438,0.523-2.164,0.772c-1.576,0.539-3.15,1.078-4.678,1.715
			c-0.866,0.361-1.694,0.788-2.543,1.179c-1.338,0.617-2.678,1.227-3.974,1.917c-0.887,0.473-1.736,1.001-2.603,1.507
			C71.159,88,69.957,88.7,68.797,89.465c-0.861,0.567-1.685,1.178-2.522,1.779c-1.106,0.794-2.205,1.594-3.266,2.444
			c-0.812,0.651-1.593,1.335-2.378,2.018c-1.013,0.882-2.013,1.775-2.98,2.708c-0.756,0.73-1.486,1.482-2.211,2.243
			c-0.922,0.966-1.822,1.949-2.693,2.962c-0.687,0.798-1.356,1.61-2.008,2.435c-0.83,1.049-1.627,2.12-2.403,3.211
			c-0.61,0.859-1.21,1.722-1.785,2.607c-0.734,1.129-1.424,2.283-2.099,3.452c-0.526,0.91-1.051,1.818-1.541,2.75
			c-0.634,1.209-1.211,2.447-1.782,3.693c-0.434,0.948-0.879,1.888-1.276,2.857c-0.531,1.298-0.991,2.627-1.452,3.959
			c-0.334,0.967-0.692,1.92-0.989,2.903c-0.426,1.412-0.765,2.859-1.109,4.303c-0.226,0.946-0.491,1.877-0.681,2.837
			c-0.323,1.625-0.539,3.283-0.756,4.943c-0.107,0.816-0.267,1.615-0.348,2.438c-0.246,2.5-0.385,5.03-0.385,7.593
			c-0.043,10.293,2.023,20.486,6.071,29.95c-0.535,0.333-0.999,0.744-1.526,1.087c-1.388,0.91-2.716,1.896-4.046,2.884
			c-3.068,2.255-5.982,4.714-8.722,7.358c-0.315,0.306-0.657,0.583-0.967,0.894c-1.603,1.6-3.086,3.29-4.549,5.005
			c-0.487,0.572-0.976,1.141-1.448,1.727c-1.423,1.762-2.783,3.557-4.058,5.423c-0.355,0.518-0.674,1.058-1.018,1.583
			c-3.694,5.668-6.692,11.76-8.928,18.145c-0.533,1.509-1.054,3.021-1.504,4.567c-0.408,1.419-0.771,2.847-1.106,4.292
			c-0.465,1.979-0.839,3.987-1.162,6.016c-0.184,1.167-0.399,2.319-0.535,3.499c-0.12,1.02-0.201,2.047-0.284,3.077
			c-0.026,0.172-0.129,0.31-0.145,0.486C0.013,251.73,0,253.863,0,256.001c0.037,24.539,10.616,47.879,29.046,64.081
			c-3.776,6.174-6.702,12.828-8.699,19.784c-0.115,0.393-0.23,0.783-0.339,1.177c-0.879,3.2-1.562,6.452-2.043,9.735
			c-0.079,0.542-0.129,1.088-0.197,1.632c-0.447,3.401-0.681,6.827-0.701,10.257c-0.167,37.764,25.891,70.588,62.708,78.992
			c0.245,0.948,0.576,1.856,0.849,2.792c0.267,0.911,0.533,1.82,0.827,2.719c0.671,2.064,1.423,4.084,2.229,6.078
			c0.259,0.638,0.493,1.286,0.765,1.918c3.448,8.012,8.001,15.502,13.526,22.252c0.337,0.412,0.694,0.805,1.038,1.212
			c1.483,1.752,3.024,3.447,4.623,5.085c0.527,0.539,1.064,1.065,1.604,1.591c1.495,1.454,3.036,2.855,4.623,4.203
			c0.638,0.544,1.268,1.092,1.92,1.619c1.615,1.303,3.284,2.534,4.982,3.728c0.648,0.457,1.273,0.941,1.934,1.381
			c2.32,1.545,4.694,3.011,7.148,4.347c0.448,0.244,0.923,0.441,1.375,0.678c2.017,1.057,4.063,2.061,6.159,2.971
			c1.043,0.454,2.117,0.841,3.18,1.257c1.573,0.616,3.152,1.215,4.763,1.747c1.166,0.385,2.346,0.73,3.532,1.07
			c1.609,0.462,3.234,0.881,4.873,1.256c1.165,0.267,2.328,0.529,3.508,0.752c1.84,0.348,3.701,0.614,5.573,0.853
			c1.01,0.128,2.008,0.291,3.028,0.386c2.916,0.275,5.857,0.447,8.834,0.447c12.327,0.005,24.534-2.433,35.914-7.172
			c1.271,1.72,3.147,2.893,5.249,3.285c29.219,5.183,59.123,5.183,88.342,0c4.068-0.729,7.029-4.267,7.029-8.4V454.23
			c18.545-4.722,36.313-12.089,52.758-21.875l32.175,32.175c2.922,2.93,7.527,3.336,10.917,0.962
			c24.334-16.968,45.474-38.107,62.442-62.442c2.37-3.391,1.964-7.993-0.962-10.917l-32.175-32.175
			c9.786-16.445,17.153-34.214,21.875-52.758h45.483c4.132,0,7.671-2.961,8.4-7.029C513.296,270.952,513.296,241.049,508.113,211.83
			z M170.667,494.934c-2.48,0-4.928-0.141-7.349-0.372c-0.873-0.083-1.728-0.233-2.592-0.346c-1.523-0.198-3.044-0.407-4.539-0.694
			c-1.024-0.197-2.032-0.445-3.043-0.682c-1.308-0.307-2.61-0.63-3.892-1.003c-1.038-0.303-2.065-0.634-3.085-0.979
			c-1.235-0.417-2.456-0.865-3.661-1.343c-0.981-0.388-1.959-0.784-2.921-1.212c-1.25-0.556-2.472-1.158-3.685-1.778
			c-0.853-0.435-1.714-0.857-2.549-1.323c-1.417-0.792-2.792-1.648-4.152-2.526c-0.573-0.369-1.166-0.709-1.73-1.092
			c-3.948-2.692-7.637-5.743-11.022-9.115c-0.109-0.109-0.209-0.228-0.318-0.338c-1.559-1.576-3.05-3.216-4.472-4.92
			c-0.253-0.304-0.489-0.623-0.738-0.931c-1.241-1.538-2.432-3.118-3.554-4.749c-0.289-0.42-0.563-0.851-0.845-1.277
			c-1.024-1.556-1.994-3.149-2.907-4.78c-0.286-0.514-0.568-1.03-0.844-1.55c-0.839-1.584-1.613-3.207-2.342-4.854
			c-0.261-0.591-0.53-1.179-0.776-1.778c-0.67-1.627-1.264-3.292-1.824-4.973c-0.213-0.643-0.449-1.274-0.646-1.925
			c-0.533-1.755-0.972-3.548-1.38-5.353c-0.133-0.589-0.302-1.163-0.421-1.758c-4.327-21.45,0.707-43.728,13.839-61.232
			c2.817-3.767,2.053-9.104-1.708-11.93c-3.761-2.826-9.1-2.074-11.934,1.68c-12.244,16.223-18.84,36.009-18.779,56.334
			c0,1.689,0.165,3.336,0.254,5.004c-25.78-8.886-43.039-33.202-42.92-60.47c-0.001-3.515,0.284-7.024,0.853-10.493
			c0.06-0.368,0.196-0.708,0.263-1.074c1.792-9.986,5.978-19.389,12.197-27.404c0.058-0.075,0.068-0.174,0.123-0.25
			c8.055-10.427,19.144-18.101,31.74-21.966c4.506-1.385,7.035-6.161,5.65-10.667c-1.385-4.506-6.161-7.035-10.667-5.65
			c-13.219,4.051-25.181,11.417-34.748,21.398c-14.28-12.935-22.442-31.293-22.478-50.561c0.022-2.863,0.221-5.722,0.596-8.56
			c0.113-0.905,0.263-1.799,0.412-2.693c0.319-1.941,0.738-3.85,1.219-5.739c0.246-0.956,0.452-1.927,0.739-2.866
			c0.71-2.34,1.545-4.64,2.504-6.89c0.558-1.307,1.209-2.563,1.846-3.826c0.529-1.057,1.077-2.103,1.66-3.13
			c0.784-1.373,1.587-2.735,2.461-4.047c0.503-0.756,1.064-1.472,1.597-2.208c1.661-2.288,3.461-4.471,5.39-6.538
			c0.755-0.807,1.5-1.621,2.297-2.392c1.045-1.016,2.127-1.992,3.234-2.94c1.22-1.039,2.492-2.027,3.792-2.985
			c1.029-0.763,2.052-1.527,3.123-2.232c1.982-1.294,4.029-2.486,6.132-3.572c9.656-5.023,20.38-7.647,31.264-7.649
			c4.713,0,8.533-3.82,8.533-8.533s-3.821-8.533-8.533-8.533c-10.156,0.02-20.225,1.866-29.728,5.448
			c-2.937-7.142-4.434-14.793-4.406-22.515c0.004-27.038,18.168-50.702,44.285-57.697c26.117-6.995,53.677,4.423,67.195,27.839
			c1.527,2.639,4.347,4.263,7.396,4.26c3.049-0.003,5.865-1.633,7.388-4.275c1.522-2.642,1.519-5.896-0.009-8.535
			c-12.227-21.013-33.65-35.026-57.801-37.808c1.975-34.563,31.092-61.28,65.697-60.283c34.605,0.997,62.135,29.347,62.116,63.967
			v52.731l-37.05,51.873l-31.343-13.754c0.021-0.423,0.126-0.822,0.126-1.25c0.125-12.491-8.695-23.286-20.96-25.653
			c-12.265-2.367-24.469,4.372-29,16.012c-4.531,11.641-0.094,24.856,10.544,31.404c10.638,6.548,24.435,4.556,32.787-4.732
			l30.992,13.602c2.143,0.938,4.457,1.422,6.796,1.421c5.527,0.006,10.719-2.649,13.95-7.133l23.158-32.424v67.236h-69.839
			c-4.156-11.755-16.176-18.806-28.465-16.698s-21.271,12.763-21.271,25.231s8.982,23.123,21.271,25.231s24.309-4.943,28.465-16.698
			h69.839v34.133h-18.639c-4.156-11.755-16.176-18.806-28.465-16.698s-21.271,12.763-21.271,25.231s8.982,23.123,21.271,25.231
			s24.309-4.943,28.465-16.698h18.639v34.133h-69.804c-8.128,0.016-15.123,5.749-16.733,13.717l-6.024,30.116
			c-11.817,3.597-19.338,15.168-17.83,27.427c1.509,12.26,11.611,21.661,23.947,22.286c12.336,0.625,23.337-7.707,26.077-19.752
			c2.74-12.045-3.573-24.316-14.966-29.089l5.528-27.639h69.804v68.267C247.418,460.529,213.062,494.885,170.667,494.934z
			 M162.134,170.667c0,4.713-3.821,8.533-8.533,8.533c-4.713,0-8.533-3.82-8.533-8.533s3.821-8.533,8.533-8.533
			C158.311,162.14,162.128,165.957,162.134,170.667z M162.134,238.934c0,4.713-3.821,8.533-8.533,8.533
			c-4.713,0-8.533-3.82-8.533-8.533s3.821-8.533,8.533-8.533C158.311,230.407,162.128,234.224,162.134,238.934z M213.334,290.134
			c0,4.713-3.821,8.533-8.533,8.533s-8.533-3.82-8.533-8.533s3.82-8.533,8.533-8.533
			C209.511,281.607,213.328,285.424,213.334,290.134z M170.667,401.067c0,4.713-3.82,8.533-8.533,8.533s-8.533-3.82-8.533-8.533
			s3.82-8.533,8.533-8.533C166.844,392.54,170.661,396.357,170.667,401.067z M492.458,290.134h-44.97
			c-4.007-0.001-7.474,2.787-8.333,6.7c-4.642,21.239-13.036,41.48-24.788,59.771c-2.17,3.376-1.693,7.808,1.146,10.646
			l31.817,31.817c-13.645,18.357-29.905,34.618-48.263,48.263l-31.817-31.817c-2.839-2.835-7.269-3.312-10.646-1.146
			c-18.291,11.751-38.532,20.145-59.771,24.788c-3.914,0.859-6.702,4.327-6.701,8.333v44.971
			c-20.918,2.99-42.141,3.179-63.109,0.562c23.587-17.672,37.482-45.414,37.509-74.886v-43.099
			c62.491-4.408,110.934-56.388,110.934-119.034s-48.443-114.626-110.934-119.034V81.067c-0.003-24.435-11.047-47.559-30.049-62.92
			c18.54-1.718,37.218-1.249,55.649,1.395v44.971c-0.001,4.007,2.787,7.474,6.7,8.333c21.239,4.642,41.48,13.036,59.771,24.788
			c3.375,2.174,7.81,1.697,10.646-1.146l31.817-31.817c18.357,13.645,34.618,29.905,48.263,48.263l-31.817,31.817
			c-2.838,2.837-3.315,7.269-1.146,10.646c11.751,18.291,20.145,38.532,24.788,59.771c0.859,3.914,4.327,6.702,8.333,6.701h44.971
			C495.758,244.503,495.758,267.498,492.458,290.134z M315.734,256.001c-0.051-29.661-21.846-54.798-51.2-59.052v-42.916
			c53.05,4.397,93.866,48.736,93.866,101.968c0,53.232-40.816,97.571-93.866,101.968v-42.916
			C293.888,310.798,315.682,285.662,315.734,256.001z M264.534,297.805v-83.608c19.865,4.055,34.133,21.529,34.133,41.804
			C298.667,276.275,284.399,293.75,264.534,297.805z"/>
	</g>
</g>
<g>
</g>
<g>
</g>
<g>
</g>
<g>
</g>
<g>
</g>
<g>
</g>
<g>
</g>
<g>
</g>
<g>
</g>
<g>
</g>
<g>
</g>
<g>
</g>
<g>
</g>
<g>
</g>
<g>
</g>
</svg>
