<?xml version="1.0" encoding="UTF-8"?>
<svg xmlns="http://www.w3.org/2000/svg" xmlns:xlink="http://www.w3.org/1999/xlink" width="512" height="512" viewBox="0 0 60 60" version="1.1"><!-- Generator: Sketch 51.3 (57544) - http://www.bohemiancoding.com/sketch --><title>052 - Split Personality</title><desc>Created with Sketch.</desc><defs/><g id="Page-1" stroke="none" stroke-width="1" fill="none" fill-rule="evenodd"><g id="052---Split-Personality" transform="translate(-1.000000, -1.000000)" fill="#eee" fill-rule="nonzero"><path d="M2.472,38.392 C2.80054825,38.6202248 3.1473953,38.8209078 3.509,38.992 C3.942,39.214 4.667,39.584 4.717,39.843 C4.78031432,40.1841061 4.7395478,40.5363706 4.6,40.854 C4.451,41.174 4.294,41.449 4.16,41.687 C3.793,42.334 3.18,43.417 4.105,44.172 C4.321,44.372 4.694,44.661 5.035,44.922 C4.78429954,45.3595079 4.67073033,45.8622085 4.709,46.365 C4.76194566,46.7609409 4.97665396,47.1172191 5.302,47.349 C5.524,47.505 5.761,47.642 5.995,47.774 C6.586,48.111 6.817,48.268 6.895,48.581 C6.95069328,48.9834766 6.91654191,49.393293 6.795,49.781 C6.737,50.049 6.679,50.317 6.646,50.581 C6.54656038,51.4922757 6.65880736,52.4142066 6.974,53.275 C7.42302917,54.8635415 8.859478,55.9705333 10.51,56 C10.7859477,55.9996337 11.0611041,55.9704758 11.331,55.913 C14.1879732,55.2369535 17.0030862,54.3948571 19.762,53.391 C22.014,54.712 23.438,58.733 23.809,60.241 C23.9197719,60.6870872 24.3203652,61.0002183 24.78,61 L49.88,60.93 C50.198095,60.9293833 50.4969218,60.7774667 50.6848608,60.5208273 C50.8727998,60.2641879 50.9274293,59.9334437 50.832,59.63 C50.584758,58.9524505 50.2437748,58.3128965 49.819,57.73 C49.5794826,57.383949 49.3630142,57.0225003 49.171,56.648 C48.7189936,55.7307827 48.3414446,54.7787169 48.042,53.801 C47.4713724,51.86946 47.075776,49.8904743 46.86,47.888 C46.7558051,46.9248706 46.7373994,45.9543875 46.805,44.988 C46.87,44.988 46.932,44.998 46.997,44.998 C53.1435345,44.9931532 58.5680366,40.9797588 60.3704808,35.1034415 C62.172925,29.2271243 59.9316998,22.8624195 54.845,19.412 C54.6801481,18.11626 54.4241806,16.8337494 54.079,15.574 C53.0630062,12.1395898 50.9674742,9.12393125 48.103,6.974 C45.6070109,4.94598805 42.7917667,3.34625619 39.772,2.24 C39.7434066,2.23114346 39.7143663,2.22379994 39.685,2.218 C37.897046,1.41579336 35.959672,1.00071482 34,1 C33.8,1 33.607,1.022 33.409,1.03 C33.395,1.03 33.384,1.021 33.37,1.021 C32.553,0.987 31.784,0.992 31.017,1.031 C27.7633257,1.25642965 24.5306187,1.72068008 21.345,2.42 C16.837,3.32 13.559,4.899 11.322,7.264 C9.55764935,9.15273351 8.19332433,11.378648 7.311,13.808 C6.95048378,14.8528228 6.65459148,15.9188366 6.425,17 L6.325,17.421 C6.11203544,18.2060552 5.82508359,18.9691396 5.468,19.7 C5.268,20.155 5.062,20.61 4.881,21.084 C4.65311901,21.6096949 4.56294901,22.1847868 4.619,22.755 C4.8202643,23.6508991 5.33750027,24.4443256 6.076,24.99 C6.565,25.439 6.886,25.755 6.89,26.03 C6.85309275,26.1819661 6.79591349,26.3282777 6.72,26.465 C5.52194066,28.9872106 4.05403523,31.3721378 2.342,33.578 C1.618,34.46 0.86,35.488 1.019,36.517 C1.23276535,37.3113274 1.75616654,37.9867419 2.472,38.392 Z M59,31 C58.9928352,37.624447 53.624447,42.9928352 47,43 C46.66,43 46.326,42.977 45.993,42.949 L45.988,42.949 L45.977,42.949 C42.6159855,42.6902409 39.5228844,41.0166339 37.4675644,38.3447369 C35.4122443,35.6728398 34.5880056,32.2539415 35.2,28.939 C36.5048789,28.8271794 37.7873102,28.5308971 39.009,28.059 C39.0273028,29.5269709 40.1052841,30.7660525 41.5565978,30.9873267 C43.0079114,31.2086009 44.406164,30.3470578 44.861094,28.9512382 C45.316024,27.5554187 44.6939737,26.0354119 43.391,25.359 C45.2810488,23.6518141 46.6698536,21.4616029 47.408,19.024 C53.8651237,19.2462609 58.9882166,24.5390629 59,31 Z M34,3 C40.627417,3 46,8.372583 46,15 C46,21.627417 40.627417,27 34,27 C27.372583,27 22,21.627417 22,15 C22.0071648,8.37555305 27.375553,3.00716485 34,3 Z M43,28 C43,28.5522847 42.5522847,29 42,29 C41.4477153,29 41,28.5522847 41,28 C41,27.4477153 41.4477153,27 42,27 C42.5522847,27 43,27.4477153 43,28 Z M52.158,16.122 C52.343,16.774 52.499,17.47 52.636,18.194 C51.1174629,17.5269418 49.4918787,17.1368016 47.836,17.042 C48.3319327,13.8954406 47.7068873,10.6746517 46.07,7.942 C46.337,8.142 46.605,8.342 46.87,8.55 C49.4103297,10.4306854 51.2670909,13.0894213 52.158,16.122 Z M3.924,34.8 C5.71375889,32.4951848 7.2480766,30.0029244 8.5,27.367 C8.73497076,26.954426 8.86735419,26.4914269 8.886,26.017 C8.78360356,25.011548 8.25073785,24.0997313 7.425,23.517 C7.025,23.146 6.639,22.796 6.595,22.472 C6.60269376,22.2355727 6.65529553,22.0027674 6.75,21.786 C6.913,21.358 7.101,20.938 7.29,20.518 C7.70037906,19.6721835 8.02823001,18.7887608 8.269,17.88 L8.369,17.455 C8.58135844,16.4541893 8.85487145,15.4673384 9.188,14.5 C9.97659287,12.3246957 11.1970675,10.3313899 12.776,8.64 C14.69,6.614 17.7,5.183 21.74,4.38 C23.026,4.118 24.428,3.851 25.877,3.619 C21.0431671,7.05617027 18.9058084,13.1703994 20.545504,18.8705291 C22.1851995,24.5706588 27.2446663,28.6146538 33.166,28.958 C33.0616174,29.6337872 33.00614,30.3162264 33,31 C33.0118424,37.8712356 38.0054998,43.7196174 44.79,44.808 C44.7179684,45.9156759 44.747089,47.0276128 44.877,48.13 C45.1069847,50.2535694 45.5280234,52.3520695 46.135,54.4 C46.4637026,55.4753737 46.8787184,56.5224441 47.376,57.531 C47.604122,57.9840924 47.8634115,58.4208081 48.152,58.838 C48.174,58.871 48.196,58.904 48.218,58.938 L25.536,59 C24.8717541,56.627989 23.6669103,54.4421559 22.016,52.614 L22.955,52.286 C23.607,52.059 24.099,51.886 24.355,51.805 C28.64,50.452 30.782,48.505 30.724,46.005 C30.7156043,45.6477344 30.5172474,45.3220864 30.2036484,45.1507246 C29.8900495,44.9793627 29.5088516,44.9883208 29.2036484,45.1742246 C28.8984452,45.3601283 28.7156042,45.6947344 28.724,46.052 C28.748,47.081 27.905,48.582 23.746,49.896 C23.479,49.982 22.972,50.159 22.298,50.396 C21.549,50.658 20.591,50.996 19.531,51.353 C16.7168654,52.3847693 13.8454025,53.252886 10.931,53.953 C9.99726211,54.1319621 9.08795525,53.5447014 8.867,52.62 C8.65391662,52.0509676 8.57354163,51.4408017 8.632,50.836 C8.659,50.626 8.706,50.417 8.752,50.208 C8.95539225,49.5165593 8.98493295,48.7855986 8.838,48.08 C8.54685539,47.1626653 7.87185426,46.4168803 6.988,46.036 C6.918,45.997 6.849,45.957 6.78,45.917 C6.88817724,45.6985751 7.01745938,45.4912548 7.166,45.298 C7.33332921,45.0853699 7.40735318,44.8140087 7.37117341,44.5458638 C7.33499364,44.277719 7.19169851,44.0356798 6.974,43.875 C6.734,43.698 6.168,43.275 5.754,42.941 C5.802,42.854 5.854,42.758 5.904,42.672 C6.061,42.396 6.241,42.072 6.415,41.706 C6.73195159,41.0051861 6.82518406,40.2237094 6.682,39.468 C6.442,38.247 5.273,37.649 4.419,37.213 C4.13122025,37.0770398 3.85555542,36.9167929 3.595,36.734 C3.38069965,36.5908717 3.17987123,36.4285354 2.995,36.249 C3,36.1 3.162,35.731 3.924,34.8 Z" id="Shape"/><path d="M10.966,19.54 C11.5032883,19.6648555 12.0402087,19.33107 12.166,18.794 L12.266,18.357 C12.4416976,17.5225638 12.6650637,16.6988805 12.935,15.89 C13.5374558,14.2205962 14.4707696,12.6900159 15.679,11.39 C16.9749597,10.1673852 18.5618104,9.29616632 20.289,8.859 C20.8175365,8.69773284 21.1152671,8.1385365 20.954,7.61000001 C20.7927328,7.08146351 20.2335365,6.78373287 19.705,6.945 C17.6449016,7.48103948 15.7576052,8.53868316 14.225,10.016 C12.8317446,11.5131091 11.7555223,13.2764265 11.061,15.2 C10.7609859,16.0868957 10.5138846,16.9908189 10.321,17.907 L10.221,18.34 C10.0960876,18.8769763 10.4293361,19.4137523 10.966,19.54 Z" id="Shape"/><circle id="Oval" cx="10" cy="22" r="1"/><path d="M29,15 C30.6568542,15 32,13.6568542 32,12 C32,10.3431458 30.6568542,9 29,9 C27.3431458,9 26,10.3431458 26,12 C26,13.6568542 27.3431458,15 29,15 Z M29,11 C29.5522847,11 30,11.4477153 30,12 C30,12.5522847 29.5522847,13 29,13 C28.4477153,13 28,12.5522847 28,12 C28,11.4477153 28.4477153,11 29,11 Z" id="Shape"/><path d="M39,15 C40.6568542,15 42,13.6568542 42,12 C42,10.3431458 40.6568542,9 39,9 C37.3431458,9 36,10.3431458 36,12 C36,13.6568542 37.3431458,15 39,15 Z M39,11 C39.5522847,11 40,11.4477153 40,12 C40,12.5522847 39.5522847,13 39,13 C38.4477153,13 38,12.5522847 38,12 C38,11.4477153 38.4477153,11 39,11 Z" id="Shape"/><path d="M30,18 C30,17.4477153 29.5522847,17 29,17 C28.4477153,17 28,17.4477153 28,18 C28,21.3137085 30.6862915,24 34,24 C37.3137085,24 40,21.3137085 40,18 C40,17.4477153 39.5522847,17 39,17 C38.4477153,17 38,17.4477153 38,18 C38,20.209139 36.209139,22 34,22 C31.790861,22 30,20.209139 30,18 Z" id="Shape"/><path d="M52,31 C53.6568542,31 55,29.6568542 55,28 C55,26.3431458 53.6568542,25 52,25 C50.3431458,25 49,26.3431458 49,28 C49,29.6568542 50.3431458,31 52,31 Z M52,27 C52.5522847,27 53,27.4477153 53,28 C53,28.5522847 52.5522847,29 52,29 C51.4477153,29 51,28.5522847 51,28 C51,27.4477153 51.4477153,27 52,27 Z" id="Shape"/><path d="M47,33 C43.6876624,33.0033074 41.0033074,35.6876624 41,39 C41,39.5522847 41.4477153,40 42,40 C42.5522847,40 43,39.5522847 43,39 C43,36.790861 44.790861,35 47,35 C49.209139,35 51,36.790861 51,39 C51,39.5522847 51.4477153,40 52,40 C52.5522847,40 53,39.5522847 53,39 C52.9966926,35.6876624 50.3123376,33.0033074 47,33 Z" id="Shape"/></g></g></svg>
