<svg version="1.1" id="Layer_1" xmlns="http://www.w3.org/2000/svg" x="0" y="0" viewBox="0 0 510.2 510.2" xml:space="preserve"><style>.st1{fill:#e91956}</style><path d="M255 31.9c30.3 0 59.6 5.9 87.2 17.6 26.7 11.3 50.7 27.5 71.2 48 20.6 20.6 36.8 44.6 48 71.2 11.7 27.6 17.6 57 17.6 87.2s-5.9 59.6-17.6 87.2c-11.3 26.7-27.5 50.7-48 71.2-20.6 20.6-44.6 36.8-71.2 48-27.6 11.7-57 17.6-87.2 17.6s-59.6-5.9-87.2-17.6c-26.7-11.3-50.7-27.5-71.2-48-20.6-20.6-36.8-44.6-48-71.2-11.7-27.6-17.6-57-17.6-87.2s5.9-59.6 17.6-87.2c11.3-26.7 27.5-50.7 48-71.2 20.6-20.6 44.6-36.8 71.2-48 27.6-11.7 56.9-17.6 87.2-17.6m0-31C114.1.9-.1 115.1-.1 256S114.1 511.1 255 511.1 510.1 396.9 510.1 256 395.9.9 255 .9z" fill="#eeedee"/><circle class="st1" cx="255.1" cy="255.1" r="46.4"/><circle class="st1" cx="109" cy="255.1" r="46.4"/><circle class="st1" cx="401.3" cy="255.1" r="46.4"/></svg>