<svg height="488pt" viewBox="-12 0 488 488" width="488pt" xmlns="http://www.w3.org/2000/svg" xmlns:xlink="http://www.w3.org/1999/xlink"><linearGradient id="a"><stop offset="0" stop-color="#fff200"/><stop offset="1" stop-color="#cd118c"/></linearGradient><linearGradient id="b" gradientUnits="userSpaceOnUse" x1="-25.352" x2="486.648" xlink:href="#a" y1="478.528" y2="6.528"/><linearGradient id="c" gradientUnits="userSpaceOnUse" x1="2.848" x2="514.848" xlink:href="#a" y1="509.12" y2="37.12"/><linearGradient id="d" gradientUnits="userSpaceOnUse" x1="24.904" x2="536.904" xlink:href="#a" y1="533.048" y2="61.048"/><linearGradient id="e" gradientUnits="userSpaceOnUse" x1="-129.648" x2="382.352" xlink:href="#a" y1="365.4" y2="-106.6"/><linearGradient id="f" gradientUnits="userSpaceOnUse" x1="-162.24" x2="349.76" xlink:href="#a" y1="330.048" y2="-141.952"/><linearGradient id="g" gradientUnits="userSpaceOnUse" x1="-159.392" x2="352.608" xlink:href="#a" y1="333.136" y2="-138.864"/><linearGradient id="h" gradientUnits="userSpaceOnUse" x1="-121.864" x2="390.136" xlink:href="#a" y1="373.84" y2="-98.16"/><linearGradient id="i" gradientUnits="userSpaceOnUse" x1="-59.72" x2="452.28" xlink:href="#a" y1="441.256" y2="-30.744"/><linearGradient id="j" gradientUnits="userSpaceOnUse" x1="99.432" x2="611.432" xlink:href="#a" y1="613.888" y2="141.888"/><linearGradient id="k" gradientUnits="userSpaceOnUse" x1="61.904" x2="573.904" xlink:href="#a" y1="573.184" y2="101.184"/><linearGradient id="l" gradientUnits="userSpaceOnUse" x1="-.24" x2="511.76" xlink:href="#a" y1="505.776" y2="33.776"/><linearGradient id="m" gradientUnits="userSpaceOnUse" x1="-70.36" x2="441.64" xlink:href="#a" y1="429.712" y2="-42.288"/><linearGradient id="n" gradientUnits="userSpaceOnUse" x1="-20.36" x2="491.64" xlink:href="#a" y1="483.952" y2="11.952"/><linearGradient id="o" gradientUnits="userSpaceOnUse" x1="-95.832" x2="416.168" xlink:href="#a" y1="402.08" y2="-69.92"/><linearGradient id="p" gradientUnits="userSpaceOnUse" x1="81.648" x2="593.648" xlink:href="#a" y1="594.6" y2="122.6"/><path d="M283.328 234.793l-14.023 10.07-14.024-10.07a8 8 0 00-9.344 0l-13.984 10.062-13.992-10.062a8 8 0 00-9.344 0l-13.984 10.062-13.953-10.062a8.002 8.002 0 00-11.172 1.812c-2.586 3.583-1.774 8.586 1.812 11.172l18.633 13.43a8 8 0 009.352 0l13.984-10.062 13.992 10.062a8 8 0 009.344 0l13.992-10.062 14.016 10.062a8 8 0 009.344 0l18.695-13.422c3.586-2.582 4.406-7.582 1.824-11.168a7.999 7.999 0 00-11.168-1.824zm0 0" fill="url(#b)"/><path d="M208 272a8 8 0 00-8 8v80a8 8 0 0016 0v-80a8 8 0 00-8-8zm0 0" fill="url(#c)"/><path d="M256 272a8 8 0 00-8 8v80a8 8 0 0016 0v-80a8 8 0 00-8-8zm0 0" fill="url(#d)"/><path d="M232 64a8 8 0 008-8V8a8 8 0 00-16 0v48a8 8 0 008 8zm0 0" fill="url(#e)"/><path d="M137.07 83.574a7.999 7.999 0 006.938 4.047 7.994 7.994 0 006.957-4.016 8.008 8.008 0 00-.035-8.03l-24-41.598a8.003 8.003 0 10-13.86 8zm0 0" fill="url(#f)"/><path d="M34.008 126.93l41.601 24a7.998 7.998 0 0010.88-2.957 8 8 0 00-2.88-10.903l-41.601-24a8.003 8.003 0 00-8 13.86zm0 0" fill="url(#g)"/><path d="M64 232a8 8 0 00-8-8H8a8 8 0 000 16h48a8 8 0 008-8zm0 0" fill="url(#h)"/><path d="M75.574 313.07l-41.597 24a8.003 8.003 0 108 13.86l41.597-24a7.999 7.999 0 004.047-6.938 7.994 7.994 0 00-4.016-6.957 8.008 8.008 0 00-8.03.035zm0 0" fill="url(#i)"/><path d="M429.992 337.07l-41.601-24a8 8 0 10-8 13.86l41.601 24a8.003 8.003 0 008-13.86zm0 0" fill="url(#j)"/><path d="M456 224h-48a8 8 0 000 16h48a8 8 0 000-16zm0 0" fill="url(#k)"/><path d="M384.434 152a7.95 7.95 0 004-1.07l41.597-24a8.002 8.002 0 00-8-13.86l-41.597 24a8.009 8.009 0 00-3.73 9 8.005 8.005 0 007.73 5.93zm0 0" fill="url(#l)"/><path d="M316 86.504a8 8 0 0010.93-2.93l24-41.597a8.003 8.003 0 10-13.86-8l-24 41.597a8.006 8.006 0 002.93 10.93zm0 0" fill="url(#m)"/><path d="M232 80c-67.918-.043-127.61 45-146.2 110.324-18.593 65.32 8.438 135.047 66.2 170.774V400a8 8 0 008 8h144a8 8 0 008-8v-38.902c57.762-35.727 84.793-105.453 66.2-170.774C359.61 125 299.917 79.957 232 80zm68 269.64a7.996 7.996 0 00-4 6.919V392H168v-35.441a7.996 7.996 0 00-4-6.918c-53.309-30.778-79.297-93.524-63.367-152.98C116.566 137.202 170.445 95.858 232 95.858s115.434 41.344 131.367 100.801c15.93 59.457-10.058 122.203-63.367 152.98zm0 0" fill="url(#n)"/><path d="M240 120a8 8 0 00-8-8c-42.852.09-82.43 22.938-103.938 60a8.012 8.012 0 00-.234 8.191 7.998 7.998 0 0014.074-.191c18.649-32.125 52.953-51.926 90.098-52a8 8 0 008-8zm0 0" fill="url(#o)"/><path d="M304 424H160a8 8 0 00-8 8v48a8 8 0 008 8h144a8 8 0 008-8v-48a8 8 0 00-8-8zm-8 48H168v-32h128zm0 0" fill="url(#p)"/></svg>