<svg xmlns="http://www.w3.org/2000/svg" width="512" height="512" viewBox="0 0 60 60"><g transform="translate(-1 -1)" fill="#eee"><path d="M2.472 38.392c.329.228.675.429 1.037.6.433.222 1.158.592 1.208.851.063.341.023.693-.117 1.011-.149.32-.306.595-.44.833-.367.647-.98 1.73-.055 2.485.216.2.589.489.93.75-.25.438-.364.94-.326 1.443.053.396.268.752.593.984.222.156.459.293.693.425.591.337.822.494.9.807a2.74 2.74 0 01-.1 1.2c-.058.268-.116.536-.149.8-.1.911.013 1.833.328 2.694A3.744 3.744 0 0010.51 56c.276 0 .551-.03.821-.087a75.508 75.508 0 008.431-2.522c2.252 1.321 3.676 5.342 4.047 6.85a1 1 0 00.971.759l25.1-.07a1 1 0 00.952-1.3 7.719 7.719 0 00-1.013-1.9 9.586 9.586 0 01-.648-1.082c-.452-.917-.83-1.87-1.129-2.847a33.561 33.561 0 01-1.182-5.913 16.353 16.353 0 01-.055-2.9c.065 0 .127.01.192.01a14 14 0 007.848-25.586 27.8 27.8 0 00-.766-3.838 16.663 16.663 0 00-5.976-8.6 29.067 29.067 0 00-8.331-4.734.852.852 0 00-.087-.022A13.9 13.9 0 0034 1c-.2 0-.393.022-.591.03-.014 0-.025-.009-.039-.009a25.216 25.216 0 00-2.353.01c-3.254.225-6.486.69-9.672 1.389-4.508.9-7.786 2.479-10.023 4.844a19.176 19.176 0 00-4.011 6.544A26.947 26.947 0 006.425 17l-.1.421c-.213.785-.5 1.548-.857 2.279-.2.455-.406.91-.587 1.384a3.372 3.372 0 00-.262 1.671 3.82 3.82 0 001.457 2.235c.489.449.81.765.814 1.04a1.744 1.744 0 01-.17.435 38.643 38.643 0 01-4.378 7.113c-.724.882-1.482 1.91-1.323 2.939.214.794.737 1.47 1.453 1.875zM59 31c-.007 6.624-5.376 11.993-12 12-.34 0-.674-.023-1.007-.051h-.016A11.887 11.887 0 0135.2 28.939a13.854 13.854 0 003.809-.88 3 3 0 104.382-2.7 14.007 14.007 0 004.017-6.335C53.865 19.246 58.988 24.539 59 31zM34 3c6.627 0 12 5.373 12 12s-5.373 12-12 12-12-5.373-12-12c.007-6.624 5.376-11.993 12-12zm9 25a1 1 0 11-2 0 1 1 0 012 0zm9.158-11.878c.185.652.341 1.348.478 2.072a13.912 13.912 0 00-4.8-1.152 13.591 13.591 0 00-1.766-9.1c.267.2.535.4.8.608a14.51 14.51 0 015.288 7.572zM3.924 34.8A40.329 40.329 0 008.5 27.367a2.97 2.97 0 00.386-1.35 3.493 3.493 0 00-1.461-2.5c-.4-.371-.786-.721-.83-1.045.008-.236.06-.47.155-.686.163-.428.351-.848.54-1.268.41-.846.738-1.73.979-2.638l.1-.425c.212-1 .486-1.988.819-2.955a17.156 17.156 0 013.588-5.86C14.69 6.614 17.7 5.183 21.74 4.38a99.91 99.91 0 014.137-.761 13.974 13.974 0 007.289 25.339c-.104.676-.16 1.358-.166 2.042a14.009 14.009 0 0011.79 13.808 18.26 18.26 0 00.087 3.322c.23 2.124.651 4.222 1.258 6.27a20.885 20.885 0 001.241 3.131c.228.453.487.89.776 1.307l.066.1L25.536 59a15.943 15.943 0 00-3.52-6.386l.939-.328c.652-.227 1.144-.4 1.4-.481 4.285-1.353 6.427-3.3 6.369-5.8a1 1 0 10-2 .047c.024 1.029-.819 2.53-4.978 3.844-.267.086-.774.263-1.448.5-.749.262-1.707.6-2.767.957a77.722 77.722 0 01-8.6 2.6 1.778 1.778 0 01-2.064-1.333 3.992 3.992 0 01-.235-1.784c.027-.21.074-.419.12-.628a4.378 4.378 0 00.086-2.128 3.319 3.319 0 00-1.85-2.044l-.208-.119c.108-.218.237-.426.386-.619a1 1 0 00-.192-1.423c-.24-.177-.806-.6-1.22-.934.048-.087.1-.183.15-.269.157-.276.337-.6.511-.966.317-.7.41-1.482.267-2.238-.24-1.221-1.409-1.819-2.263-2.255a5.6 5.6 0 01-.824-.479 4.247 4.247 0 01-.6-.485c.005-.149.167-.518.929-1.449z"/><path d="M10.966 19.54a1 1 0 001.2-.746l.1-.437c.176-.834.4-1.658.669-2.467.602-1.67 1.536-3.2 2.744-4.5a10.457 10.457 0 014.61-2.531 1 1 0 00-.584-1.914 12.393 12.393 0 00-5.48 3.071 15.173 15.173 0 00-3.164 5.184c-.3.887-.547 1.79-.74 2.707l-.1.433a1 1 0 00.745 1.2z"/><circle cx="10" cy="22" r="1"/><path d="M29 15a3 3 0 100-6 3 3 0 000 6zm0-4a1 1 0 110 2 1 1 0 010-2zm10 4a3 3 0 100-6 3 3 0 000 6zm0-4a1 1 0 110 2 1 1 0 010-2zm-9 7a1 1 0 00-2 0 6 6 0 1012 0 1 1 0 00-2 0 4 4 0 11-8 0zm22 13a3 3 0 100-6 3 3 0 000 6zm0-4a1 1 0 110 2 1 1 0 010-2zm-5 6a6.006 6.006 0 00-6 6 1 1 0 002 0 4 4 0 118 0 1 1 0 002 0 6.006 6.006 0 00-6-6z"/></g></svg>