<svg height="512" viewBox="0 0 64 64" width="512" xmlns="http://www.w3.org/2000/svg"><path d="M34 21v-7c0-1.771.359-3.46 1.003-5H12.944v12zm-14.293-6.707L22 16.586l6.293-6.293 1.414 1.414L22 19.414l-3.707-3.707zM17 31h-1c-4.59 0-8.623 2.398-10.937 6H14c3.309 0 6 2.691 6 6v6c0 1.103.897 2 2 2h6v-9c0-6.065-4.935-11-11-11z"/><path d="M18 49v-6c0-2.206-1.794-4-4-4H4.003A12.931 12.931 0 003 44v5h4v2c0 3.309 2.691 6 6 6h7v2h-4v2h12v-8h-6c-2.206 0-4-1.794-4-4zM8 46c-1.654 0-3-1.346-3-3h2a1.001 1.001 0 002 0h2c0 1.654-1.346 3-3 3zm2.944-21h11.469l4.892 5.87c.195.237.64.075.64-.231V25H34v-2H10.944V7h25.119c.439-.684.94-1.321 1.496-1.91A1.986 1.986 0 0037 5H10.944c-1.103 0-2 .897-2 2v16c0 1.103.898 2 2 2z"/><path d="M36 23h6c1.103 0 2-.897 2-2v-6c0-3.309 2.691-6 6-6h8.937C56.623 5.398 52.59 3 48 3h-1c-6.065 0-11 4.935-11 11zm17 12H27.937c.407.633.767 1.298 1.06 2H53v16H30v2h6v5.638c0 .307.443.468.64.231L41.531 55H53c1.103 0 2-.897 2-2V37c0-1.103-.897-2-2-2z"/><path d="M59.997 11H50c-2.206 0-4 1.794-4 4v6c0 2.206-1.794 4-4 4h-6v8h12v-2h-4v-2h7c3.309 0 6-2.691 6-6v-2h4v-5c0-1.771-.359-3.46-1.003-5zM56 18c-1.654 0-3-1.346-3-3h2a1.001 1.001 0 002 0h2c0 1.654-1.346 3-3 3zm-5 33V39H29.637c.229.965.363 1.966.363 3v9zm-15.707-9.293l1.414-1.414L40 43.586l3.293-3.293 1.414 1.414L41.414 45l3.293 3.293-1.414 1.414L40 46.414l-3.293 3.293-1.414-1.414L38.586 45z"/></svg>